<svg width="320" height="233" viewBox="0 0 320 233" fill="none" xmlns="http://www.w3.org/2000/svg">
<circle cx="160" cy="116.364" r="116.364" fill="#F1F5F9"/>
<circle cx="41.3618" cy="32.0102" r="8.70748" fill="#F1F5F9"/>
<circle cx="282.557" cy="180.55" r="8.72727" fill="#F1F5F9"/>
<circle cx="24.9341" cy="192.563" r="14.5455" fill="#F1F5F9"/>
<circle cx="305.456" cy="62.5552" r="14.5455" fill="#F1F5F9"/>
<circle cx="268.567" cy="21.4416" r="10.1818" fill="#F1F5F9"/>
<g filter="url(#filter0_d_8982_24961)">
<path d="M234 60.668H200.667C200.667 50.0593 196.452 39.8852 188.951 32.3837C181.449 24.8822 171.275 20.668 160.667 20.668C150.058 20.668 139.884 24.8822 132.382 32.3837C124.881 39.8852 120.667 50.0593 120.667 60.668H87.3333C83.7971 60.668 80.4057 62.0727 77.9052 64.5732C75.4048 67.0737 74 70.4651 74 74.0013V174.001C74 177.538 75.4048 180.929 77.9052 183.429C80.4057 185.93 83.7971 187.335 87.3333 187.335H234C237.536 187.335 240.928 185.93 243.428 183.429C245.929 180.929 247.333 177.538 247.333 174.001V74.0013C247.333 70.4651 245.929 67.0737 243.428 64.5732C240.928 62.0727 237.536 60.668 234 60.668ZM160.667 34.0013C167.739 34.0013 174.522 36.8108 179.523 41.8118C184.524 46.8128 187.333 53.5955 187.333 60.668H134C134 53.5955 136.81 46.8128 141.81 41.8118C146.811 36.8108 153.594 34.0013 160.667 34.0013Z" fill="white"/>
</g>
<path d="M190.607 176.241C190.607 153.748 208.842 135.514 231.335 135.514C253.828 135.514 272.062 153.748 272.062 176.241C272.062 198.734 253.828 216.968 231.335 216.968C208.842 216.968 190.607 198.734 190.607 176.241Z" fill="#9AB1D4" fill-opacity="0.3"/>
<path d="M246.608 191.514L240.669 185.575M244.911 175.393C244.911 183.359 238.453 189.817 230.487 189.817C222.52 189.817 216.062 183.359 216.062 175.393C216.062 167.427 222.52 160.969 230.487 160.969C238.453 160.969 244.911 167.427 244.911 175.393Z" stroke="white" stroke-width="2.90909" stroke-linecap="round" stroke-linejoin="round"/>
<defs>
<filter id="filter0_d_8982_24961" x="69.5088" y="18.4224" width="182.316" height="175.648" filterUnits="userSpaceOnUse" color-interpolation-filters="sRGB">
<feFlood flood-opacity="0" result="BackgroundImageFix"/>
<feColorMatrix in="SourceAlpha" type="matrix" values="0 0 0 0 0 0 0 0 0 0 0 0 0 0 0 0 0 0 127 0" result="hardAlpha"/>
<feOffset dy="2.24561"/>
<feGaussianBlur stdDeviation="2.24561"/>
<feComposite in2="hardAlpha" operator="out"/>
<feColorMatrix type="matrix" values="0 0 0 0 0.796078 0 0 0 0 0.835294 0 0 0 0 0.882353 0 0 0 0.4 0"/>
<feBlend mode="normal" in2="BackgroundImageFix" result="effect1_dropShadow_8982_24961"/>
<feBlend mode="normal" in="SourceGraphic" in2="effect1_dropShadow_8982_24961" result="shape"/>
</filter>
</defs>
</svg>
