<svg width="328" height="240" viewBox="0 0 328 240" fill="none" xmlns="http://www.w3.org/2000/svg">
<ellipse cx="163.999" cy="120" rx="118.691" ry="120" fill="#F8E166"/>
<ellipse cx="42.9871" cy="33.0108" rx="8.88163" ry="8.97959" fill="#FDF6D3"/>
<ellipse cx="289.008" cy="186.193" rx="8.90181" ry="9" fill="#FDF6D3"/>
<circle cx="25" cy="182" r="13" fill="#FBEEA9"/>
<ellipse cx="312.363" cy="64.5117" rx="14.8364" ry="15" fill="#FBEEA9"/>
<ellipse cx="274.737" cy="22.1113" rx="10.3854" ry="10.5" fill="#FBEEA9"/>
<g filter="url(#filter0_d_7067_61003)">
<path d="M149.938 86.25C149.938 83.4687 150.762 80.7499 152.307 78.4373C153.853 76.1247 156.049 74.3223 158.619 73.2579C161.188 72.1936 164.016 71.9151 166.743 72.4577C169.471 73.0003 171.977 74.3396 173.944 76.3063C175.91 78.273 177.25 80.7787 177.792 83.5065C178.335 86.2344 178.056 89.0619 176.992 91.6315C175.928 94.2011 174.125 96.3973 171.813 97.9425C169.5 99.4878 166.781 100.312 164 100.312C160.27 100.312 156.694 98.8309 154.056 96.1937C151.419 93.5565 149.938 89.9796 149.938 86.25ZM116.188 86.25C116.188 73.5693 121.225 61.408 130.191 52.4415C139.158 43.4749 151.319 38.4375 164 38.4375C176.681 38.4375 188.842 43.4749 197.809 52.4415C206.775 61.408 211.812 73.5693 211.812 86.25C211.813 130.02 169.97 154.453 168.184 155.452C166.909 156.179 165.467 156.562 164 156.562C162.533 156.562 161.091 156.179 159.816 155.452C158.03 154.453 116.188 130.02 116.188 86.25ZM133.062 86.25C133.062 113.109 154.655 131.391 164 138.028C173.288 131.355 194.938 112.969 194.938 86.25C194.938 78.0449 191.678 70.1758 185.876 64.3739C180.074 58.572 172.205 55.3125 164 55.3125C155.795 55.3125 147.926 58.572 142.124 64.3739C136.322 70.1758 133.062 78.0449 133.062 86.25ZM220.651 132.375C219.624 131.939 218.521 131.712 217.405 131.705C216.29 131.698 215.184 131.913 214.152 132.336C213.12 132.76 212.182 133.384 211.393 134.172C210.603 134.96 209.978 135.897 209.553 136.929C209.129 137.96 208.912 139.066 208.918 140.181C208.923 141.297 209.149 142.4 209.583 143.428C210.018 144.455 210.652 145.386 211.448 146.167C212.245 146.948 213.188 147.563 214.224 147.977C224.159 152.07 228.688 156.752 228.688 159.375C228.688 162.187 223.674 167.159 212.677 171.384C199.81 176.306 182.52 179.062 164 179.062C145.48 179.062 128.19 176.334 115.323 171.384C104.319 167.159 99.3125 162.188 99.3125 159.375C99.3125 156.752 103.841 152.07 113.776 147.977C114.812 147.563 115.755 146.948 116.552 146.167C117.348 145.386 117.982 144.455 118.417 143.428C118.851 142.4 119.077 141.297 119.082 140.181C119.087 139.066 118.871 137.96 118.447 136.929C118.022 135.897 117.397 134.96 116.607 134.172C115.818 133.384 114.88 132.76 113.848 132.336C112.816 131.913 111.71 131.698 110.595 131.705C109.479 131.712 108.376 131.939 107.349 132.375C95.9867 137.051 82.4375 145.53 82.4375 159.375C82.4375 183.38 123.472 195.938 164 195.937C184.545 195.937 203.98 192.816 218.738 187.134C228.758 183.281 245.563 174.555 245.563 159.375C245.563 145.53 232.013 137.051 220.651 132.375Z" fill="white"/>
</g>
<rect x="201" y="142" width="83.5405" height="83.5405" rx="41.7703" fill="#FFD000" fill-opacity="0.6"/>
<path d="M242.074 192.125C241.891 192.787 241.58 193.408 241.157 193.95C240.734 194.493 240.209 194.946 239.611 195.286C239.013 195.625 238.354 195.843 237.672 195.928C236.99 196.013 236.297 195.962 235.634 195.78C234.972 195.597 234.351 195.285 233.809 194.863C233.267 194.44 232.813 193.915 232.473 193.317C232.134 192.719 231.916 192.06 231.831 191.377C231.746 190.695 231.797 190.003 231.98 189.34M227.106 182.03L258.434 173.328V194.213L227.106 187.252V182.03Z" stroke="white" stroke-width="2.98359" stroke-linecap="round" stroke-linejoin="round"/>
<defs>
<filter id="filter0_d_7067_61003" x="78.4375" y="38.4375" width="171.125" height="165.5" filterUnits="userSpaceOnUse" color-interpolation-filters="sRGB">
<feFlood flood-opacity="0" result="BackgroundImageFix"/>
<feColorMatrix in="SourceAlpha" type="matrix" values="0 0 0 0 0 0 0 0 0 0 0 0 0 0 0 0 0 0 127 0" result="hardAlpha"/>
<feOffset dy="4"/>
<feGaussianBlur stdDeviation="2"/>
<feComposite in2="hardAlpha" operator="out"/>
<feColorMatrix type="matrix" values="0 0 0 0 0.996078 0 0 0 0 0.647059 0 0 0 0 0 0 0 0 0.2 0"/>
<feBlend mode="normal" in2="BackgroundImageFix" result="effect1_dropShadow_7067_61003"/>
<feBlend mode="normal" in="SourceGraphic" in2="effect1_dropShadow_7067_61003" result="shape"/>
</filter>
</defs>
</svg>
