<svg width="328" height="258" viewBox="0 0 328 258" fill="none" xmlns="http://www.w3.org/2000/svg">
<ellipse cx="163.999" cy="129" rx="118.691" ry="120" fill="#F8E166"/>
<ellipse cx="42.9871" cy="42.0108" rx="8.88163" ry="8.97959" fill="#FDF6D3"/>
<ellipse cx="300.007" cy="179.193" rx="8.90181" ry="9" fill="#FDF6D3"/>
<circle cx="25" cy="191" r="13" fill="#FBEEA9"/>
<ellipse cx="312.364" cy="73.5117" rx="14.8364" ry="15" fill="#FBEEA9"/>
<ellipse cx="274.737" cy="41.1113" rx="10.3854" ry="10.5" fill="#FBEEA9"/>
<g filter="url(#filter0_d_7067_61197)">
<path d="M220.455 54.5175H192.023C188.499 50.5798 184.181 47.4293 179.351 45.2722C174.522 43.115 169.291 42 164 42C158.709 42 153.478 43.115 148.649 45.2722C143.819 47.4293 139.501 50.5798 135.977 54.5175H107.545C104.218 54.5175 101.027 55.8364 98.6745 58.1841C96.3217 60.5318 95 63.7159 95 67.0361V198.481C95 201.802 96.3217 204.986 98.6745 207.333C101.027 209.681 104.218 211 107.545 211H220.455C223.782 211 226.973 209.681 229.326 207.333C231.678 204.986 233 201.802 233 198.481V67.0361C233 63.7159 231.678 60.5318 229.326 58.1841C226.973 55.8364 223.782 54.5175 220.455 54.5175ZM164 54.5175C170.655 54.5175 177.036 57.1553 181.742 61.8507C186.447 66.5461 189.091 72.9144 189.091 79.5547H138.909C138.909 72.9144 141.553 66.5461 146.258 61.8507C150.964 57.1553 157.345 54.5175 164 54.5175ZM189.091 154.666H138.909C137.245 154.666 135.65 154.007 134.474 152.833C133.297 151.659 132.636 150.067 132.636 148.407C132.636 146.747 133.297 145.155 134.474 143.981C135.65 142.807 137.245 142.148 138.909 142.148H189.091C190.755 142.148 192.35 142.807 193.526 143.981C194.703 145.155 195.364 146.747 195.364 148.407C195.364 150.067 194.703 151.659 193.526 152.833C192.35 154.007 190.755 154.666 189.091 154.666ZM189.091 129.629H138.909C137.245 129.629 135.65 128.97 134.474 127.796C133.297 126.622 132.636 125.03 132.636 123.37C132.636 121.71 133.297 120.118 134.474 118.944C135.65 117.77 137.245 117.11 138.909 117.11H189.091C190.755 117.11 192.35 117.77 193.526 118.944C194.703 120.118 195.364 121.71 195.364 123.37C195.364 125.03 194.703 126.622 193.526 127.796C192.35 128.97 190.755 129.629 189.091 129.629Z" fill="white"/>
</g>
<path d="M201 192.77C201 169.701 219.701 151 242.77 151C265.839 151 284.541 169.701 284.541 192.77C284.541 215.839 265.839 234.541 242.77 234.541C219.701 234.541 201 215.839 201 192.77Z" fill="#FFD000" fill-opacity="0.6"/>
<path d="M258.434 208.433L250.95 200.949M254.953 191.029C254.953 198.719 248.72 204.952 241.03 204.952C233.34 204.952 227.106 198.719 227.106 191.029C227.106 183.339 233.34 177.105 241.03 177.105C248.72 177.105 254.953 183.339 254.953 191.029Z" stroke="white" stroke-width="2.98359" stroke-linecap="round" stroke-linejoin="round"/>
<defs>
<filter id="filter0_d_7067_61197" x="91" y="42" width="146" height="177" filterUnits="userSpaceOnUse" color-interpolation-filters="sRGB">
<feFlood flood-opacity="0" result="BackgroundImageFix"/>
<feColorMatrix in="SourceAlpha" type="matrix" values="0 0 0 0 0 0 0 0 0 0 0 0 0 0 0 0 0 0 127 0" result="hardAlpha"/>
<feOffset dy="4"/>
<feGaussianBlur stdDeviation="2"/>
<feComposite in2="hardAlpha" operator="out"/>
<feColorMatrix type="matrix" values="0 0 0 0 0.984314 0 0 0 0 0.737255 0 0 0 0 0.0196078 0 0 0 0.2 0"/>
<feBlend mode="normal" in2="BackgroundImageFix" result="effect1_dropShadow_7067_61197"/>
<feBlend mode="normal" in="SourceGraphic" in2="effect1_dropShadow_7067_61197" result="shape"/>
</filter>
</defs>
</svg>
