<svg width="328" height="240" viewBox="0 0 328 240" fill="none" xmlns="http://www.w3.org/2000/svg">
<ellipse cx="163.999" cy="120" rx="118.691" ry="120" fill="#F8E166"/>
<ellipse cx="42.9871" cy="33.0108" rx="8.88163" ry="8.97959" fill="#FDF6D3"/>
<ellipse cx="289.008" cy="186.193" rx="8.90181" ry="9" fill="#FDF6D3"/>
<circle cx="25" cy="182" r="13" fill="#FBEEA9"/>
<ellipse cx="312.363" cy="64.5117" rx="14.8364" ry="15" fill="#FBEEA9"/>
<ellipse cx="274.737" cy="22.1113" rx="10.3854" ry="10.5" fill="#FBEEA9"/>
<g filter="url(#filter0_d_7067_61103)">
<path d="M229.625 41.25H209.938V34.6875C209.938 32.947 209.246 31.2778 208.015 30.0471C206.785 28.8164 205.115 28.125 203.375 28.125C201.635 28.125 199.965 28.8164 198.735 30.0471C197.504 31.2778 196.812 32.947 196.812 34.6875V41.25H131.188V34.6875C131.188 32.947 130.496 31.2778 129.265 30.0471C128.035 28.8164 126.365 28.125 124.625 28.125C122.885 28.125 121.215 28.8164 119.985 30.0471C118.754 31.2778 118.062 32.947 118.062 34.6875V41.25H98.375C94.894 41.25 91.5556 42.6328 89.0942 45.0942C86.6328 47.5556 85.25 50.894 85.25 54.375V185.625C85.25 189.106 86.6328 192.444 89.0942 194.906C91.5556 197.367 94.894 198.75 98.375 198.75H229.625C233.106 198.75 236.444 197.367 238.906 194.906C241.367 192.444 242.75 189.106 242.75 185.625V54.375C242.75 50.894 241.367 47.5556 238.906 45.0942C236.444 42.6328 233.106 41.25 229.625 41.25ZM164 152.812C161.404 152.812 158.867 152.043 156.708 150.601C154.55 149.158 152.867 147.109 151.874 144.71C150.881 142.312 150.621 139.673 151.127 137.127C151.634 134.581 152.884 132.242 154.719 130.407C156.555 128.571 158.893 127.321 161.439 126.815C163.985 126.308 166.624 126.568 169.023 127.562C171.421 128.555 173.471 130.237 174.913 132.396C176.355 134.554 177.125 137.092 177.125 139.688C177.125 143.168 175.742 146.507 173.281 148.968C170.819 151.43 167.481 152.812 164 152.812ZM229.625 80.625H98.375V54.375H118.062V60.9375C118.062 62.678 118.754 64.3472 119.985 65.5779C121.215 66.8086 122.885 67.5 124.625 67.5C126.365 67.5 128.035 66.8086 129.265 65.5779C130.496 64.3472 131.188 62.678 131.188 60.9375V54.375H196.812V60.9375C196.812 62.678 197.504 64.3472 198.735 65.5779C199.965 66.8086 201.635 67.5 203.375 67.5C205.115 67.5 206.785 66.8086 208.015 65.5779C209.246 64.3472 209.938 62.678 209.938 60.9375V54.375H229.625V80.625Z" fill="white"/>
</g>
<path d="M201 183.77C201 160.701 219.701 142 242.77 142C265.839 142 284.541 160.701 284.541 183.77C284.541 206.839 265.839 225.541 242.77 225.541C219.701 225.541 201 206.839 201 183.77Z" fill="#FFD000" fill-opacity="0.6"/>
<path d="M227.106 182.029L260.175 166.365L244.511 199.433L241.03 185.51L227.106 182.029Z" stroke="white" stroke-width="2.98359" stroke-linecap="round" stroke-linejoin="round"/>
<defs>
<filter id="filter0_d_7067_61103" x="81.25" y="28.125" width="165.5" height="178.625" filterUnits="userSpaceOnUse" color-interpolation-filters="sRGB">
<feFlood flood-opacity="0" result="BackgroundImageFix"/>
<feColorMatrix in="SourceAlpha" type="matrix" values="0 0 0 0 0 0 0 0 0 0 0 0 0 0 0 0 0 0 127 0" result="hardAlpha"/>
<feOffset dy="4"/>
<feGaussianBlur stdDeviation="2"/>
<feComposite in2="hardAlpha" operator="out"/>
<feColorMatrix type="matrix" values="0 0 0 0 0.996078 0 0 0 0 0.647059 0 0 0 0 0 0 0 0 0.2 0"/>
<feBlend mode="normal" in2="BackgroundImageFix" result="effect1_dropShadow_7067_61103"/>
<feBlend mode="normal" in="SourceGraphic" in2="effect1_dropShadow_7067_61103" result="shape"/>
</filter>
</defs>
</svg>
