<svg width="328" height="258" viewBox="0 0 328 258" fill="none" xmlns="http://www.w3.org/2000/svg">
<ellipse cx="163.999" cy="129" rx="118.691" ry="120" fill="#F8E166"/>
<ellipse cx="42.9871" cy="42.0104" rx="8.88163" ry="8.97959" fill="#FDF6D3"/>
<ellipse cx="289.008" cy="195.193" rx="8.90181" ry="9" fill="#FDF6D3"/>
<circle cx="25" cy="191" r="13" fill="#FBEEA9"/>
<ellipse cx="312.363" cy="73.5112" rx="14.8364" ry="15" fill="#FBEEA9"/>
<ellipse cx="274.737" cy="31.1113" rx="10.3854" ry="10.5" fill="#FBEEA9"/>
<g filter="url(#filter0_d_6076_123937)">
<path d="M234.75 57H91.0625C87.5981 57 84.2756 58.3762 81.8259 60.8259C79.3762 63.2756 78 66.5981 78 70.0625V187.625C78 191.089 79.3762 194.412 81.8259 196.862C84.2756 199.311 87.5981 200.688 91.0625 200.688H234.75C238.214 200.688 241.537 199.311 243.987 196.862C246.436 194.412 247.812 191.089 247.812 187.625V70.0625C247.812 66.5981 246.436 63.2756 243.987 60.8259C241.537 58.3762 238.214 57 234.75 57ZM221.688 168.031C223.42 168.031 225.081 168.719 226.306 169.944C227.531 171.169 228.219 172.83 228.219 174.562C228.219 176.295 227.531 177.956 226.306 179.181C225.081 180.406 223.42 181.094 221.688 181.094H104.125C102.393 181.094 100.732 180.406 99.5067 179.181C98.2819 177.956 97.5938 176.295 97.5938 174.562V83.125C97.5938 81.3928 98.2819 79.7316 99.5067 78.5067C100.732 77.2819 102.393 76.5938 104.125 76.5938C105.857 76.5938 107.518 77.2819 108.743 78.5067C109.968 79.7316 110.656 81.3928 110.656 83.125V134.493L139.132 110.76C140.215 109.859 141.559 109.331 142.966 109.256C144.372 109.181 145.765 109.562 146.937 110.344L182.043 133.767L217.483 104.229C218.815 103.12 220.532 102.586 222.258 102.744C223.983 102.902 225.575 103.738 226.684 105.07C227.793 106.402 228.327 108.119 228.169 109.845C228.011 111.57 227.175 113.162 225.843 114.271L186.656 146.927C185.573 147.829 184.229 148.357 182.822 148.432C181.416 148.507 180.023 148.125 178.851 147.344L143.745 123.921L110.656 151.499V168.031H221.688Z" fill="white"/>
</g>
<path d="M201.003 192.77C201.003 169.701 219.704 151 242.773 151C265.842 151 284.543 169.701 284.543 192.77C284.543 215.839 265.842 234.541 242.773 234.541C219.704 234.541 201.003 215.839 201.003 192.77Z" fill="#FFD000" fill-opacity="0.6"/>
<path d="M258.437 208.435L252.346 202.343M256.697 191.901C256.697 200.071 250.073 206.694 241.903 206.694C233.733 206.694 227.109 200.071 227.109 191.901C227.109 183.73 233.733 177.107 241.903 177.107C250.073 177.107 256.697 183.73 256.697 191.901Z" stroke="white" stroke-width="2.98359" stroke-linecap="round" stroke-linejoin="round"/>
<defs>
<filter id="filter0_d_6076_123937" x="73" y="57" width="179.812" height="153.688" filterUnits="userSpaceOnUse" color-interpolation-filters="sRGB">
<feFlood flood-opacity="0" result="BackgroundImageFix"/>
<feColorMatrix in="SourceAlpha" type="matrix" values="0 0 0 0 0 0 0 0 0 0 0 0 0 0 0 0 0 0 127 0" result="hardAlpha"/>
<feOffset dy="5"/>
<feGaussianBlur stdDeviation="2.5"/>
<feComposite in2="hardAlpha" operator="out"/>
<feColorMatrix type="matrix" values="0 0 0 0 0.996078 0 0 0 0 0.647059 0 0 0 0 0 0 0 0 0.2 0"/>
<feBlend mode="normal" in2="BackgroundImageFix" result="effect1_dropShadow_6076_123937"/>
<feBlend mode="normal" in="SourceGraphic" in2="effect1_dropShadow_6076_123937" result="shape"/>
</filter>
</defs>
</svg>
