<svg width="328" height="258" viewBox="0 0 328 258" fill="none" xmlns="http://www.w3.org/2000/svg">
<ellipse cx="163.999" cy="129" rx="118.691" ry="120" fill="#F8E166"/>
<ellipse cx="42.9871" cy="42.0108" rx="8.88163" ry="8.97959" fill="#FDF6D3"/>
<ellipse cx="289.008" cy="195.193" rx="8.90181" ry="9" fill="#FDF6D3"/>
<circle cx="25" cy="191" r="13" fill="#FBEEA9"/>
<ellipse cx="312.363" cy="73.5117" rx="14.8364" ry="15" fill="#FBEEA9"/>
<ellipse cx="274.737" cy="31.1113" rx="10.3854" ry="10.5" fill="#FBEEA9"/>
<g filter="url(#filter0_d_7067_61583)">
<path d="M256 194.87C256 196.761 255.25 198.574 253.916 199.912C252.582 201.249 250.772 202 248.885 202H78.1154C76.2283 202 74.4184 201.249 73.084 199.912C71.7497 198.574 71 196.761 71 194.87C71 192.978 71.7497 191.165 73.084 189.828C74.4184 188.49 76.2283 187.739 78.1154 187.739H85.2308V130.696C85.2308 128.805 85.9804 126.991 87.3148 125.654C88.6492 124.316 90.459 123.565 92.3462 123.565H113.692C115.579 123.565 117.389 124.316 118.724 125.654C120.058 126.991 120.808 128.805 120.808 130.696V187.739H135.038V87.913C135.038 86.0219 135.788 84.2083 137.123 82.8711C138.457 81.5339 140.267 80.7826 142.154 80.7826H170.615C172.503 80.7826 174.312 81.5339 175.647 82.8711C176.981 84.2083 177.731 86.0219 177.731 87.913V187.739H191.962V45.1304C191.962 43.2393 192.711 41.4257 194.046 40.0885C195.38 38.7512 197.19 38 199.077 38H234.654C236.541 38 238.351 38.7512 239.685 40.0885C241.02 41.4257 241.769 43.2393 241.769 45.1304V187.739H248.885C250.772 187.739 252.582 188.49 253.916 189.828C255.25 191.165 256 192.978 256 194.87Z" fill="white"/>
</g>
<path d="M201 192.77C201 169.701 219.701 151 242.77 151C265.839 151 284.541 169.701 284.541 192.77C284.541 215.839 265.839 234.541 242.77 234.541C219.701 234.541 201 215.839 201 192.77Z" fill="#FFD000" fill-opacity="0.6"/>
<path d="M253.214 180.587L249.012 176.385C248.36 175.732 247.474 175.365 246.551 175.365H232.329C231.405 175.365 230.52 175.732 229.867 176.385C229.214 177.038 228.848 177.923 228.848 178.846V206.693C228.848 207.616 229.214 208.501 229.867 209.154C230.52 209.807 231.405 210.174 232.329 210.174H253.214C254.137 210.174 255.022 209.807 255.675 209.154C256.328 208.501 256.694 207.616 256.694 206.693M235.809 203.212H237.55M259.093 193.859C259.786 193.166 260.176 192.225 260.176 191.245C260.176 190.264 259.786 189.324 259.093 188.631C258.399 187.937 257.459 187.548 256.479 187.548C255.498 187.548 254.558 187.937 253.865 188.631L246.885 195.613C246.472 196.027 246.169 196.538 246.005 197.1L244.548 202.095C244.504 202.244 244.502 202.403 244.54 202.554C244.579 202.705 244.658 202.843 244.768 202.954C244.878 203.064 245.016 203.142 245.167 203.181C245.319 203.22 245.477 203.217 245.627 203.174L250.622 201.717C251.184 201.553 251.695 201.25 252.108 200.836L259.093 193.859Z" stroke="white" stroke-width="2.98359" stroke-linecap="round" stroke-linejoin="round"/>
<defs>
<filter id="filter0_d_7067_61583" x="67" y="38" width="193" height="172" filterUnits="userSpaceOnUse" color-interpolation-filters="sRGB">
<feFlood flood-opacity="0" result="BackgroundImageFix"/>
<feColorMatrix in="SourceAlpha" type="matrix" values="0 0 0 0 0 0 0 0 0 0 0 0 0 0 0 0 0 0 127 0" result="hardAlpha"/>
<feOffset dy="4"/>
<feGaussianBlur stdDeviation="2"/>
<feComposite in2="hardAlpha" operator="out"/>
<feColorMatrix type="matrix" values="0 0 0 0 0.996078 0 0 0 0 0.647059 0 0 0 0 0 0 0 0 0.2 0"/>
<feBlend mode="normal" in2="BackgroundImageFix" result="effect1_dropShadow_7067_61583"/>
<feBlend mode="normal" in="SourceGraphic" in2="effect1_dropShadow_7067_61583" result="shape"/>
</filter>
</defs>
</svg>
