<svg width="328" height="240" viewBox="0 0 328 240" fill="none" xmlns="http://www.w3.org/2000/svg">
<ellipse cx="164.001" cy="120" rx="118.691" ry="120" fill="#F8E166"/>
<ellipse cx="42.989" cy="33.0108" rx="8.88163" ry="8.97959" fill="#FDF6D3"/>
<ellipse cx="289.009" cy="186.193" rx="8.90181" ry="9" fill="#FDF6D3"/>
<circle cx="25" cy="182" r="13" fill="#FBEEA9"/>
<ellipse cx="312.364" cy="64.5117" rx="14.8364" ry="15" fill="#FBEEA9"/>
<ellipse cx="274.739" cy="22.1113" rx="10.3854" ry="10.5" fill="#FBEEA9"/>
<g filter="url(#filter0_d_7067_62062)">
<path d="M124.871 113.651C123.786 107.335 123.981 100.866 125.445 94.6277C127.348 86.3672 131.097 80.625 134.551 80.625C136.659 80.625 136.963 81.1746 137.11 81.4453C137.832 82.766 140.391 90.4113 126.75 119.606C125.863 117.713 125.232 115.71 124.871 113.651ZM249.312 60.9375V179.062C249.312 182.543 247.93 185.882 245.468 188.343C243.007 190.805 239.668 192.188 236.188 192.188H91.8125C88.3315 192.188 84.9931 190.805 82.5317 188.343C80.0703 185.882 78.6875 182.543 78.6875 179.062V60.9375C78.6875 57.4565 80.0703 54.1181 82.5317 51.6567C84.9931 49.1953 88.3315 47.8125 91.8125 47.8125H236.188C239.668 47.8125 243.007 49.1953 245.468 51.6567C247.93 54.1181 249.312 57.4565 249.312 60.9375ZM127.906 146.25C129.547 143.305 131.138 140.245 132.746 137.112C141.228 136.849 150.965 130.902 161.843 119.327C165.944 127.276 171.178 131.837 177.322 132.904C183.884 134.036 190.447 130.951 196.96 123.716C201.882 128.252 210.208 133.125 223.046 133.125C224.787 133.125 226.456 132.434 227.686 131.203C228.917 129.972 229.609 128.303 229.609 126.562C229.609 124.822 228.917 123.153 227.686 121.922C226.456 120.691 224.787 120 223.046 120C208.354 120 203.113 111.075 202.67 110.271C202.187 109.232 201.434 108.341 200.491 107.69C199.548 107.04 198.448 106.654 197.305 106.571C196.14 106.49 194.975 106.721 193.93 107.24C192.885 107.759 191.997 108.548 191.357 109.525C185.796 117.728 181.62 120.32 179.553 119.967C176.272 119.401 172.047 111.764 170.341 105.202C170.037 104.02 169.41 102.947 168.531 102.102C167.651 101.257 166.553 100.674 165.36 100.418C164.167 100.163 162.927 100.245 161.778 100.655C160.629 101.065 159.618 101.787 158.857 102.741C151.572 111.715 145.486 117.334 140.703 120.509C153.664 91.2644 151.589 80.6496 148.578 75.1453C147.061 72.2906 143.156 67.5 134.551 67.5C124.346 67.5 116.159 76.5234 112.657 91.6664C110.795 99.6898 110.564 108.005 111.976 116.12C113.37 123.421 116.217 129.023 120.31 132.625C117.849 137.391 115.314 142.001 112.927 146.25H104.938C103.197 146.25 101.528 146.941 100.297 148.172C99.0664 149.403 98.375 151.072 98.375 152.812C98.375 154.553 99.0664 156.222 100.297 157.453C101.528 158.684 103.197 159.375 104.938 159.375H105.298C101.804 165.216 99.466 168.882 99.4086 168.964C98.4709 170.431 98.1541 172.21 98.528 173.91C98.9018 175.609 99.9356 177.091 101.402 178.029C102.868 178.967 104.647 179.283 106.347 178.91C108.047 178.536 109.529 177.502 110.466 176.036C110.762 175.584 114.954 169.005 120.548 159.375H223.062C224.803 159.375 226.472 158.684 227.703 157.453C228.934 156.222 229.625 154.553 229.625 152.812C229.625 151.072 228.934 149.403 227.703 148.172C226.472 146.941 224.803 146.25 223.062 146.25H127.906Z" fill="white"/>
</g>
<path d="M201 183.77C201 160.701 219.701 142 242.77 142C265.839 142 284.541 160.701 284.541 183.77C284.541 206.839 265.839 225.541 242.77 225.541C219.701 225.541 201 206.839 201 183.77Z" fill="#FFD000" fill-opacity="0.6"/>
<path d="M253.212 185.51L250.819 173.546C250.754 173.221 250.597 172.921 250.367 172.681C250.137 172.442 249.843 172.274 249.521 172.196L227.515 166.414C227.225 166.344 226.922 166.349 226.635 166.43C226.347 166.511 226.086 166.664 225.875 166.875C225.664 167.086 225.511 167.347 225.43 167.635C225.349 167.922 225.344 168.225 225.414 168.515L231.196 190.521C231.274 190.843 231.442 191.137 231.681 191.367C231.921 191.597 232.221 191.754 232.546 191.819L244.51 194.212M225.887 166.887L238.568 179.568M249.221 199.943C248.895 200.27 248.452 200.453 247.991 200.453C247.529 200.453 247.087 200.27 246.76 199.943L244 197.183C243.674 196.857 243.491 196.414 243.491 195.953C243.491 195.491 243.674 195.049 244 194.722L253.722 185C254.049 184.674 254.491 184.491 254.953 184.491C255.414 184.491 255.857 184.674 256.183 185L258.943 187.76C259.27 188.087 259.453 188.529 259.453 188.991C259.453 189.452 259.27 189.895 258.943 190.221L249.221 199.943ZM244.51 182.029C244.51 183.952 242.952 185.51 241.029 185.51C239.107 185.51 237.548 183.952 237.548 182.029C237.548 180.107 239.107 178.548 241.029 178.548C242.952 178.548 244.51 180.107 244.51 182.029Z" stroke="white" stroke-width="2.98359" stroke-linecap="round" stroke-linejoin="round"/>
<defs>
<filter id="filter0_d_7067_62062" x="74.6875" y="47.8125" width="178.625" height="152.375" filterUnits="userSpaceOnUse" color-interpolation-filters="sRGB">
<feFlood flood-opacity="0" result="BackgroundImageFix"/>
<feColorMatrix in="SourceAlpha" type="matrix" values="0 0 0 0 0 0 0 0 0 0 0 0 0 0 0 0 0 0 127 0" result="hardAlpha"/>
<feOffset dy="4"/>
<feGaussianBlur stdDeviation="2"/>
<feComposite in2="hardAlpha" operator="out"/>
<feColorMatrix type="matrix" values="0 0 0 0 0.996078 0 0 0 0 0.647059 0 0 0 0 0 0 0 0 0.2 0"/>
<feBlend mode="normal" in2="BackgroundImageFix" result="effect1_dropShadow_7067_62062"/>
<feBlend mode="normal" in="SourceGraphic" in2="effect1_dropShadow_7067_62062" result="shape"/>
</filter>
</defs>
</svg>
