<svg width="328" height="240" viewBox="0 0 328 240" fill="none" xmlns="http://www.w3.org/2000/svg">
<ellipse cx="164.001" cy="120" rx="118.691" ry="120" fill="#F8E166"/>
<ellipse cx="42.989" cy="33.0108" rx="8.88163" ry="8.97959" fill="#FDF6D3"/>
<ellipse cx="289.009" cy="186.193" rx="8.90181" ry="9" fill="#FDF6D3"/>
<circle cx="25" cy="182" r="13" fill="#FBEEA9"/>
<ellipse cx="312.364" cy="64.5117" rx="14.8364" ry="15" fill="#FBEEA9"/>
<ellipse cx="274.739" cy="22.1113" rx="10.3854" ry="10.5" fill="#FBEEA9"/>
<g filter="url(#filter0_d_7067_61943)">
<path d="M236.188 47.8125H118.062C114.582 47.8125 111.243 49.1953 108.782 51.6567C106.32 54.1181 104.938 57.4565 104.938 60.9375V74.0625H91.8125C88.3315 74.0625 84.9931 75.4453 82.5317 77.9067C80.0703 80.3681 78.6875 83.7065 78.6875 87.1875V179.062C78.6875 182.543 80.0703 185.882 82.5317 188.343C84.9931 190.805 88.3315 192.188 91.8125 192.188H209.938C213.418 192.188 216.757 190.805 219.218 188.343C221.68 185.882 223.062 182.543 223.062 179.062V165.938H236.188C239.668 165.938 243.007 164.555 245.468 162.093C247.93 159.632 249.312 156.293 249.312 152.812V60.9375C249.312 57.4565 247.93 54.1181 245.468 51.6567C243.007 49.1953 239.668 47.8125 236.188 47.8125ZM209.938 87.1875V100.312H91.8125V87.1875H209.938ZM236.188 152.812H223.062V87.1875C223.062 83.7065 221.68 80.3681 219.218 77.9067C216.757 75.4453 213.418 74.0625 209.938 74.0625H118.062V60.9375H236.188V152.812Z" fill="white"/>
</g>
<path d="M201 183.77C201 160.701 219.701 142 242.77 142C265.839 142 284.541 160.701 284.541 183.77C284.541 206.839 265.839 225.541 242.77 225.541C219.701 225.541 201 206.839 201 183.77Z" fill="#FFD000" fill-opacity="0.6"/>
<path d="M246.25 170.02L242.769 173.327M230.76 176.807L225.713 175.415M232.327 183.769L229.02 187.25M234.415 166.713L235.807 171.76M237.612 179.749C237.545 179.59 237.526 179.414 237.559 179.245C237.592 179.075 237.675 178.919 237.797 178.797C237.919 178.675 238.075 178.592 238.245 178.559C238.414 178.526 238.59 178.545 238.749 178.612L257.894 186.444C258.064 186.514 258.208 186.636 258.304 186.793C258.401 186.95 258.445 187.133 258.431 187.317C258.417 187.5 258.344 187.675 258.225 187.815C258.105 187.955 257.944 188.053 257.765 188.096L250.196 189.907C249.883 189.982 249.597 190.142 249.37 190.369C249.143 190.596 248.983 190.881 248.908 191.194L247.098 198.765C247.055 198.944 246.957 199.106 246.817 199.226C246.677 199.346 246.502 199.419 246.318 199.433C246.134 199.448 245.95 199.403 245.793 199.306C245.636 199.209 245.514 199.064 245.444 198.893L237.612 179.749Z" stroke="white" stroke-width="2.98359" stroke-linecap="round" stroke-linejoin="round"/>
<defs>
<filter id="filter0_d_7067_61943" x="55" y="15" width="218" height="218" filterUnits="userSpaceOnUse" color-interpolation-filters="sRGB">
<feFlood flood-opacity="0" result="BackgroundImageFix"/>
<feColorMatrix in="SourceAlpha" type="matrix" values="0 0 0 0 0 0 0 0 0 0 0 0 0 0 0 0 0 0 127 0" result="hardAlpha"/>
<feOffset dy="4"/>
<feGaussianBlur stdDeviation="2"/>
<feComposite in2="hardAlpha" operator="out"/>
<feColorMatrix type="matrix" values="0 0 0 0 0.996078 0 0 0 0 0.647059 0 0 0 0 0 0 0 0 0.2 0"/>
<feBlend mode="normal" in2="BackgroundImageFix" result="effect1_dropShadow_7067_61943"/>
<feBlend mode="normal" in="SourceGraphic" in2="effect1_dropShadow_7067_61943" result="shape"/>
</filter>
</defs>
</svg>
