<svg width="53" height="54" viewBox="0 0 53 54" fill="none" xmlns="http://www.w3.org/2000/svg">
<path d="M49.82 27.5518C49.82 25.8293 49.6654 24.173 49.3783 22.583H26.5V31.9905H39.5733C38.9991 35.0159 37.2766 37.5776 34.6929 39.3001V45.4172H42.5766C47.17 41.1772 49.82 34.9497 49.82 27.5518Z" fill="#4285F4"/>
<path d="M26.5 51.2914C33.0587 51.2914 38.5575 49.1272 42.5766 45.4172L34.6929 39.3001C32.5287 40.7576 29.7683 41.641 26.5 41.641C20.1841 41.641 14.8179 37.3789 12.8966 31.6372H4.81413V37.9089C8.81122 45.8368 17.0041 51.2914 26.5 51.2914Z" fill="#34A853"/>
<path d="M12.8966 31.6148C12.4108 30.1573 12.1237 28.6115 12.1237 26.9994C12.1237 25.3873 12.4108 23.8415 12.8966 22.384V16.1123H4.8141C3.15785 19.3806 2.20827 23.0686 2.20827 26.9994C2.20827 30.9302 3.15785 34.6181 4.8141 37.8865L11.1079 32.984L12.8966 31.6148Z" fill="#FBBC05"/>
<path d="M26.5 12.3805C30.0775 12.3805 33.2575 13.6172 35.797 16.0022L42.7533 9.04592C38.5354 5.11509 33.0587 2.70801 26.5 2.70801C17.0041 2.70801 8.81122 8.16259 4.81413 16.1126L12.8966 22.3843C14.8179 16.6426 20.1841 12.3805 26.5 12.3805Z" fill="#EA4335"/>
</svg>
