<svg width="21" height="21" viewBox="0 0 21 21" fill="none" xmlns="http://www.w3.org/2000/svg">
<path d="M9.56684 1.90655C9.82588 1.38518 10.5696 1.38517 10.8287 1.90655L12.9443 6.16457C13.0469 6.37103 13.244 6.51424 13.472 6.548L18.1754 7.24427C18.7513 7.32952 18.9812 8.03687 18.5653 8.44435L15.1695 11.7722C15.0048 11.9336 14.9295 12.1653 14.9679 12.3926L15.7591 17.081C15.856 17.655 15.2543 18.0922 14.7383 17.8227L10.5239 15.6214C10.3196 15.5146 10.0759 15.5146 9.87159 15.6214L5.65722 17.8227C5.14119 18.0922 4.53949 17.655 4.63637 17.081L5.4276 12.3926C5.46597 12.1653 5.39068 11.9336 5.22602 11.7722L1.83016 8.44435C1.41436 8.03687 1.64419 7.32952 2.22009 7.24427L6.92347 6.548C7.15153 6.51424 7.34864 6.37103 7.45122 6.16457L9.56684 1.90655Z" fill="#FEA500"/>
</svg>
