<svg width="495" height="195" viewBox="0 0 495 195" fill="none" xmlns="http://www.w3.org/2000/svg">
<path d="M167.062 192.23H131.004C128.871 192.23 126.524 190.525 123.963 186.902C121.403 183.279 118.629 178.803 115.856 173.262C113.082 167.721 110.095 161.541 107.108 154.934C104.121 148.328 101.134 141.721 97.9332 135.541C94.7327 129.361 91.7457 123.82 88.3319 118.918C84.9181 114.016 81.931 110.607 78.7306 108.689H70.6228C67.6358 108.689 64.6487 108.689 61.875 108.689C59.1013 108.689 56.5409 108.689 54.194 108.689C51.847 108.689 50.3534 108.689 49.2866 108.689V175.82L73.6099 179.016V192.656H0V179.016L20.9095 175.82V19.1804L1.49353 15.7705V2.13119H35.4181C38.8319 2.13119 42.0323 2.13119 45.2327 1.91807L54.6207 1.27873C57.8211 1.27873 60.8082 0.852499 64.0086 0.639384C67.209 0.42627 70.4095 0.42627 74.0366 0.42627C86.625 0.42627 97.2931 1.49184 106.041 3.62299C114.789 5.75414 121.83 8.95086 127.164 13C132.498 17.0492 136.338 22.3771 138.899 28.5574C141.459 34.7377 142.526 41.9836 142.526 50.2951C142.526 56.0492 141.672 61.5902 139.965 67.1312C138.259 72.6722 135.912 77.7869 132.711 82.6886C129.511 87.5902 125.67 91.6394 121.19 95.2623C116.709 98.8853 111.375 101.656 105.614 103.574C109.028 105.705 112.442 108.902 115.642 113.164C118.843 117.426 122.043 122.115 125.03 127.23C128.017 132.344 131.004 137.672 133.991 143C136.978 148.328 139.539 153.443 142.312 158.131C145.086 162.82 147.433 166.656 149.994 169.639C152.554 172.623 154.687 174.541 157.034 175.18L167.062 178.59V192.23ZM49.5 93.5574C50.5668 93.5574 52.4871 93.7705 55.0474 93.7705C57.6077 93.7705 60.1681 93.7705 63.1552 93.7705C66.1422 93.7705 68.7026 93.7705 71.2629 93.7705C73.8233 93.7705 75.9569 93.7705 77.4504 93.7705C88.1185 93.7705 96.653 90.3607 102.841 83.541C109.028 76.7214 112.015 66.4918 112.015 52.4263C112.015 47.3115 111.375 42.4099 110.095 37.7214C108.815 33.0328 106.681 29.1968 103.481 25.7869C100.28 22.3771 96.2263 19.8197 90.8922 17.6886C85.5582 15.5574 78.7306 14.705 70.6228 14.705C67.4224 14.705 64.6487 14.705 62.3017 14.705C59.9547 14.705 58.0345 14.9181 56.5409 15.1312C55.0474 15.3443 53.5539 15.5574 52.4871 15.5574C51.4203 15.5574 50.3534 15.7705 49.5 15.9836V93.1312V93.5574Z" fill="#1D1D1B"/>
<path d="M260.516 195C246.434 195 233.846 192.656 222.751 187.754C211.656 182.852 202.268 176.459 194.587 167.934C186.906 159.41 181.145 149.607 177.091 137.885C173.037 126.164 171.117 113.803 171.117 100.164C171.117 84.6065 173.678 70.541 178.798 58.1803C183.919 45.8197 190.96 35.1639 199.708 26.6393C208.456 18.1147 218.91 11.2951 230.645 6.81965C242.38 2.34424 254.968 -0.213135 268.41 -0.213135C275.024 -0.213135 281.425 -2.00123e-05 287.613 0.639324C293.8 1.27867 299.561 1.91801 304.682 2.98359C309.803 4.04916 314.496 4.6885 318.337 5.75408C322.178 6.81965 325.378 7.459 327.725 7.88523L325.378 51.5738H307.029L299.775 23.0164C299.775 23.0164 297.854 21.3115 296.147 20.2459C294.44 19.1803 292.52 18.3278 289.96 17.4754C287.4 16.6229 284.199 15.9836 280.145 15.3442C276.091 14.7049 271.397 14.4918 265.637 14.4918C256.675 14.4918 248.354 16.1967 240.673 19.3934C232.992 22.5901 226.591 27.4918 221.044 33.8852C215.496 40.2787 211.229 48.377 208.242 58.1803C205.255 67.9836 203.548 79.2787 203.548 92.2787C203.548 103.148 204.615 113.803 206.962 124.246C209.309 134.689 212.936 144.066 217.63 152.377C222.324 160.689 228.512 167.295 235.979 172.197C243.447 177.098 252.195 179.656 262.436 179.656C266.063 179.656 269.69 179.656 273.318 179.229C276.945 178.803 280.572 178.377 283.986 177.525C287.4 176.672 290.6 175.607 293.587 174.328C296.574 173.049 298.921 171.344 301.055 169.426V115.508L270.757 112.738V96.1147H344.581V112.738L330.072 115.508V182C326.658 182 322.818 182.852 318.337 184.344C313.856 185.836 308.736 187.115 302.975 188.82C297.214 190.525 290.813 191.803 283.772 193.082C276.731 194.361 268.837 195 260.303 195H260.516Z" fill="#1D1D1B"/>
<path d="M445.288 95.9016C417.977 95.9016 395.574 118.066 395.574 145.557C395.574 173.049 417.764 195.213 445.288 195.213C472.811 195.213 495.001 173.049 495.001 145.557C495.001 118.066 472.811 95.9016 445.288 95.9016Z" fill="#F7D914"/>
</svg>
