<svg width="588" height="640" viewBox="0 0 588 640" fill="none" xmlns="http://www.w3.org/2000/svg">
<circle cx="294" cy="320" r="213.818" fill="#F1F5F9"/>
<circle cx="83" cy="165" r="16" fill="#F1F5F9"/>
<circle cx="519.2" cy="437.946" r="16.0364" fill="#F1F5F9"/>
<circle cx="45.8181" cy="446.018" r="26.7273" fill="#F1F5F9"/>
<circle cx="507.727" cy="191.727" r="26.7273" fill="#F1F5F9"/>
<g filter="url(#filter0_d_2834_70617)">
<path d="M405.875 241.875H361.125V208.312C361.125 190.51 354.053 173.436 341.465 160.848C328.876 148.26 311.803 141.188 294 141.188C276.197 141.188 259.124 148.26 246.535 160.848C233.947 173.436 226.875 190.51 226.875 208.312V241.875H182.125C176.191 241.875 170.5 244.232 166.303 248.428C162.107 252.625 159.75 258.316 159.75 264.25V420.875C159.75 426.809 162.107 432.5 166.303 436.697C170.5 440.893 176.191 443.25 182.125 443.25H405.875C411.809 443.25 417.5 440.893 421.697 436.697C425.893 432.5 428.25 426.809 428.25 420.875V264.25C428.25 258.316 425.893 252.625 421.697 248.428C417.5 244.232 411.809 241.875 405.875 241.875ZM305.188 351.834V387.312C305.188 390.28 304.009 393.125 301.911 395.223C299.813 397.321 296.967 398.5 294 398.5C291.033 398.5 288.187 397.321 286.089 395.223C283.991 393.125 282.812 390.28 282.812 387.312V351.834C275.348 349.195 269.057 344.002 265.051 337.173C261.045 330.344 259.582 322.319 260.921 314.516C262.26 306.712 266.314 299.634 272.367 294.531C278.42 289.428 286.083 286.629 294 286.629C301.917 286.629 309.58 289.428 315.633 294.531C321.686 299.634 325.74 306.712 327.079 314.516C328.418 322.319 326.955 330.344 322.949 337.173C318.943 344.002 312.652 349.195 305.188 351.834ZM338.75 241.875H249.25V208.312C249.25 196.444 253.965 185.062 262.357 176.669C270.749 168.277 282.132 163.562 294 163.562C305.868 163.562 317.251 168.277 325.643 176.669C334.035 185.062 338.75 196.444 338.75 208.312V241.875Z" fill="white"/>
</g>
<circle cx="463.709" cy="124.709" r="18.7091" fill="#F1F5F9"/>
<path d="M313 411.836C313 370.505 346.505 337 387.836 337C429.167 337 462.673 370.505 462.673 411.836C462.673 453.167 429.167 486.673 387.836 486.673C346.505 486.673 313 453.167 313 411.836Z" fill="#9AB1D4" fill-opacity="0.3"/>
<path d="M398.749 397.804L405.921 404.976C406.503 405.547 407.287 405.867 408.103 405.867C408.92 405.867 409.703 405.547 410.286 404.976L416.834 398.428C417.406 397.845 417.726 397.061 417.726 396.245C417.726 395.429 417.406 394.645 416.834 394.062L409.662 386.891M415.898 380.654L385.964 410.589M390.953 422.75C390.953 432.221 383.275 439.9 373.803 439.9C364.332 439.9 356.653 432.221 356.653 422.75C356.653 413.278 364.332 405.6 373.803 405.6C383.275 405.6 390.953 413.278 390.953 422.75Z" stroke="white" stroke-width="5.34545" stroke-linecap="round" stroke-linejoin="round"/>
<defs>
<filter id="filter0_d_2834_70617" x="149.75" y="135.188" width="288.5" height="322.062" filterUnits="userSpaceOnUse" color-interpolation-filters="sRGB">
<feFlood flood-opacity="0" result="BackgroundImageFix"/>
<feColorMatrix in="SourceAlpha" type="matrix" values="0 0 0 0 0 0 0 0 0 0 0 0 0 0 0 0 0 0 127 0" result="hardAlpha"/>
<feOffset dy="4"/>
<feGaussianBlur stdDeviation="5"/>
<feComposite in2="hardAlpha" operator="out"/>
<feColorMatrix type="matrix" values="0 0 0 0 0.796078 0 0 0 0 0.835294 0 0 0 0 0.882353 0 0 0 0.4 0"/>
<feBlend mode="normal" in2="BackgroundImageFix" result="effect1_dropShadow_2834_70617"/>
<feBlend mode="normal" in="SourceGraphic" in2="effect1_dropShadow_2834_70617" result="shape"/>
</filter>
</defs>
</svg>
