<svg width="588" height="640" viewBox="0 0 588 640" fill="none" xmlns="http://www.w3.org/2000/svg">
<circle cx="294" cy="320" r="213.818" fill="#F1F5F9"/>
<circle cx="76" cy="165" r="16" fill="#F1F5F9"/>
<circle cx="519.2" cy="437.945" r="16.0364" fill="#F1F5F9"/>
<circle cx="45.8181" cy="460.018" r="26.7273" fill="#F1F5F9"/>
<circle cx="561.273" cy="221.127" r="26.7273" fill="#F1F5F9"/>
<circle cx="493.491" cy="145.582" r="18.7091" fill="#F1F5F9"/>
<g filter="url(#filter0_d_2782_17007)">
<path d="M170.25 338.375H417.75C424.314 338.375 430.609 340.983 435.251 345.624C439.892 350.266 442.5 356.561 442.5 363.125V437.375C442.5 443.939 439.892 450.234 435.251 454.876C430.609 459.517 424.314 462.125 417.75 462.125H170.25C163.686 462.125 157.391 459.517 152.749 454.876C148.108 450.234 145.5 443.939 145.5 437.375V363.125C145.5 356.561 148.108 350.266 152.749 345.624C157.391 340.983 163.686 338.375 170.25 338.375ZM213.562 418.813C217.234 418.813 220.823 417.724 223.875 415.684C226.928 413.645 229.307 410.745 230.712 407.354C232.117 403.962 232.485 400.229 231.768 396.629C231.052 393.028 229.284 389.72 226.688 387.124C224.092 384.528 220.785 382.76 217.184 382.044C213.583 381.328 209.851 381.696 206.459 383.101C203.067 384.506 200.168 386.885 198.128 389.937C196.089 392.99 195 396.579 195 400.25C195 405.173 196.956 409.895 200.437 413.376C203.918 416.857 208.639 418.813 213.562 418.813Z" fill="white"/>
</g>
<g filter="url(#filter1_d_2782_17007)">
<path d="M170.25 194.875H417.75C424.314 194.875 430.609 197.483 435.251 202.124C439.892 206.766 442.5 213.061 442.5 219.625V293.875C442.5 300.439 439.892 306.734 435.251 311.376C430.609 316.017 424.314 318.625 417.75 318.625H170.25C163.686 318.625 157.391 316.017 152.749 311.376C148.108 306.734 145.5 300.439 145.5 293.875V219.625C145.5 213.061 148.108 206.766 152.749 202.124C157.391 197.483 163.686 194.875 170.25 194.875ZM213.562 275.313C217.234 275.313 220.823 274.224 223.875 272.184C226.928 270.145 229.307 267.245 230.712 263.854C232.117 260.462 232.485 256.729 231.768 253.129C231.052 249.528 229.284 246.22 226.688 243.624C224.092 241.028 220.785 239.26 217.184 238.544C213.583 237.828 209.851 238.196 206.459 239.601C203.067 241.005 200.168 243.385 198.128 246.437C196.089 249.49 195 253.079 195 256.75C195 261.673 196.956 266.395 200.437 269.876C203.918 273.357 208.639 275.313 213.562 275.313Z" fill="white"/>
</g>
<path d="M318 400.836C318 359.505 351.505 326 392.836 326C434.167 326 467.673 359.505 467.673 400.836C467.673 442.167 434.167 475.673 392.836 475.673C351.505 475.673 318 442.167 318 400.836Z" fill="#9AB1D4" fill-opacity="0.3"/>
<path d="M392.837 400.836V413.309M392.837 425.782H392.868M408.428 419.545H409.987C413.708 419.545 417.278 418.067 419.909 415.435C422.54 412.804 424.019 409.235 424.019 405.513C424.019 401.792 422.54 398.223 419.909 395.591C417.278 392.96 413.708 391.482 409.987 391.482H404.405C403.325 387.86 401.323 384.58 398.595 381.965C395.868 379.349 392.507 377.486 388.843 376.559C385.179 375.632 381.337 375.672 377.693 376.675C374.05 377.679 370.729 379.611 368.056 382.283C365.383 384.955 363.45 388.276 362.446 391.919C361.442 395.563 361.401 399.405 362.327 403.069C363.253 406.733 365.115 410.094 367.73 412.823C370.346 415.551 373.624 417.554 377.246 418.635" stroke="white" stroke-width="5.34545" stroke-linecap="round" stroke-linejoin="round"/>
<defs>
<filter id="filter0_d_2782_17007" x="141.5" y="338.375" width="305" height="131.75" filterUnits="userSpaceOnUse" color-interpolation-filters="sRGB">
<feFlood flood-opacity="0" result="BackgroundImageFix"/>
<feColorMatrix in="SourceAlpha" type="matrix" values="0 0 0 0 0 0 0 0 0 0 0 0 0 0 0 0 0 0 127 0" result="hardAlpha"/>
<feOffset dy="4"/>
<feGaussianBlur stdDeviation="2"/>
<feComposite in2="hardAlpha" operator="out"/>
<feColorMatrix type="matrix" values="0 0 0 0 0.796078 0 0 0 0 0.835294 0 0 0 0 0.882353 0 0 0 0.4 0"/>
<feBlend mode="normal" in2="BackgroundImageFix" result="effect1_dropShadow_2782_17007"/>
<feBlend mode="normal" in="SourceGraphic" in2="effect1_dropShadow_2782_17007" result="shape"/>
</filter>
<filter id="filter1_d_2782_17007" x="141.5" y="194.875" width="305" height="131.75" filterUnits="userSpaceOnUse" color-interpolation-filters="sRGB">
<feFlood flood-opacity="0" result="BackgroundImageFix"/>
<feColorMatrix in="SourceAlpha" type="matrix" values="0 0 0 0 0 0 0 0 0 0 0 0 0 0 0 0 0 0 127 0" result="hardAlpha"/>
<feOffset dy="4"/>
<feGaussianBlur stdDeviation="2"/>
<feComposite in2="hardAlpha" operator="out"/>
<feColorMatrix type="matrix" values="0 0 0 0 0.796078 0 0 0 0 0.835294 0 0 0 0 0.882353 0 0 0 0.4 0"/>
<feBlend mode="normal" in2="BackgroundImageFix" result="effect1_dropShadow_2782_17007"/>
<feBlend mode="normal" in="SourceGraphic" in2="effect1_dropShadow_2782_17007" result="shape"/>
</filter>
</defs>
</svg>
