<svg width="328" height="240" viewBox="0 0 328 240" fill="none" xmlns="http://www.w3.org/2000/svg">
<ellipse cx="164" cy="120" rx="118.691" ry="120" fill="#F8E166"/>
<ellipse cx="42.9881" cy="33.0108" rx="8.88163" ry="8.97959" fill="#FDF6D3"/>
<ellipse cx="289.009" cy="186.193" rx="8.90181" ry="9" fill="#FDF6D3"/>
<circle cx="25" cy="182" r="13" fill="#FBEEA9"/>
<ellipse cx="312.364" cy="64.5117" rx="14.8364" ry="15" fill="#FBEEA9"/>
<ellipse cx="274.738" cy="22.1113" rx="10.3854" ry="10.5" fill="#FBEEA9"/>
<g filter="url(#filter0_d_7067_60904)">
<path d="M232.75 51.25H120.25C116.935 51.25 113.755 52.567 111.411 54.9112C109.067 57.2554 107.75 60.4348 107.75 63.75V76.25H95.25C91.9348 76.25 88.7554 77.567 86.4112 79.9112C84.067 82.2554 82.75 85.4348 82.75 88.75V176.25C82.75 179.565 84.067 182.745 86.4112 185.089C88.7554 187.433 91.9348 188.75 95.25 188.75H207.75C211.065 188.75 214.245 187.433 216.589 185.089C218.933 182.745 220.25 179.565 220.25 176.25V163.75H232.75C236.065 163.75 239.245 162.433 241.589 160.089C243.933 157.745 245.25 154.565 245.25 151.25V63.75C245.25 60.4348 243.933 57.2554 241.589 54.9112C239.245 52.567 236.065 51.25 232.75 51.25ZM198.375 76.25C200.229 76.25 202.042 76.7998 203.583 77.83C205.125 78.8601 206.327 80.3243 207.036 82.0373C207.746 83.7504 207.932 85.6354 207.57 87.454C207.208 89.2725 206.315 90.943 205.004 92.2541C203.693 93.5652 202.023 94.4581 200.204 94.8199C198.385 95.1816 196.5 94.9959 194.787 94.2864C193.074 93.5768 191.61 92.3752 190.58 90.8335C189.55 89.2918 189 87.4792 189 85.625C189 83.1386 189.988 80.754 191.746 78.9959C193.504 77.2377 195.889 76.25 198.375 76.25ZM207.75 176.25H95.25V88.75H107.75V151.25C107.75 154.565 109.067 157.745 111.411 160.089C113.755 162.433 116.935 163.75 120.25 163.75H207.75V176.25ZM232.75 151.25H120.25V114.289L143.953 90.5781C144.534 89.997 145.223 89.536 145.982 89.2215C146.74 88.907 147.554 88.7451 148.375 88.7451C149.196 88.7451 150.01 88.907 150.768 89.2215C151.527 89.536 152.216 89.997 152.797 90.5781L191.586 129.375L211.656 109.328C212.828 108.157 214.417 107.499 216.074 107.499C217.731 107.499 219.32 108.157 220.492 109.328L232.75 121.617V151.25Z" fill="white"/>
</g>
<path d="M201 183.77C201 160.701 219.701 142 242.77 142C265.839 142 284.541 160.701 284.541 183.77C284.541 206.839 265.839 225.541 242.77 225.541C219.701 225.541 201 206.839 201 183.77Z" fill="#FFD000" fill-opacity="0.7"/>
<path d="M247.122 169.848H238.419L234.068 175.069H228.847C227.924 175.069 227.039 175.436 226.386 176.088C225.733 176.741 225.366 177.627 225.366 178.55V194.214C225.366 195.137 225.733 196.022 226.386 196.675C227.039 197.328 227.924 197.694 228.847 197.694H256.694C257.617 197.694 258.502 197.328 259.155 196.675C259.808 196.022 260.175 195.137 260.175 194.214V178.55C260.175 177.627 259.808 176.741 259.155 176.088C258.502 175.436 257.617 175.069 256.694 175.069H251.473L247.122 169.848Z" stroke="white" stroke-width="2.98359" stroke-linecap="round" stroke-linejoin="round"/>
<path d="M242.77 190.733C245.654 190.733 247.992 188.395 247.992 185.512C247.992 182.628 245.654 180.29 242.77 180.29C239.887 180.29 237.549 182.628 237.549 185.512C237.549 188.395 239.887 190.733 242.77 190.733Z" stroke="white" stroke-width="2.98359" stroke-linecap="round" stroke-linejoin="round"/>
<defs>
<filter id="filter0_d_7067_60904" x="78.75" y="51.25" width="170.5" height="145.5" filterUnits="userSpaceOnUse" color-interpolation-filters="sRGB">
<feFlood flood-opacity="0" result="BackgroundImageFix"/>
<feColorMatrix in="SourceAlpha" type="matrix" values="0 0 0 0 0 0 0 0 0 0 0 0 0 0 0 0 0 0 127 0" result="hardAlpha"/>
<feOffset dy="4"/>
<feGaussianBlur stdDeviation="2"/>
<feComposite in2="hardAlpha" operator="out"/>
<feColorMatrix type="matrix" values="0 0 0 0 0.996078 0 0 0 0 0.647059 0 0 0 0 0 0 0 0 0.2 0"/>
<feBlend mode="normal" in2="BackgroundImageFix" result="effect1_dropShadow_7067_60904"/>
<feBlend mode="normal" in="SourceGraphic" in2="effect1_dropShadow_7067_60904" result="shape"/>
</filter>
</defs>
</svg>
