<svg width="1440" height="888" viewBox="0 0 1440 888" fill="none" xmlns="http://www.w3.org/2000/svg">
<mask id="mask0_3461_37220" style="mask-type:alpha" maskUnits="userSpaceOnUse" x="112" y="0" width="1216" height="1216">
<rect width="1216" height="1216" transform="translate(112)" fill="url(#paint0_radial_3461_37220)"/>
</mask>
<g mask="url(#mask0_3461_37220)">
<g clip-path="url(#clip0_3461_37220)">
<mask id="path-3-inside-1_3461_37220" fill="white">
<path d="M71.4667 0H152.533V81.0667H71.4667V0Z"/>
</mask>
<path d="M152.533 81.0667V81.9111H153.378V81.0667H152.533ZM151.689 0V81.0667H153.378V0H151.689ZM152.533 80.2222H71.4667V81.9111H152.533V80.2222Z" fill="#FDF6D3" mask="url(#path-3-inside-1_3461_37220)"/>
<mask id="path-5-inside-2_3461_37220" fill="white">
<path d="M152.533 0H233.6V81.0667H152.533V0Z"/>
</mask>
<path d="M233.6 81.0667V81.9111H234.444V81.0667H233.6ZM232.756 0V81.0667H234.444V0H232.756ZM233.6 80.2222H152.533V81.9111H233.6V80.2222Z" fill="#FDF6D3" mask="url(#path-5-inside-2_3461_37220)"/>
<mask id="path-7-inside-3_3461_37220" fill="white">
<path d="M233.6 0H314.667V81.0667H233.6V0Z"/>
</mask>
<path d="M314.667 81.0667V81.9111H315.511V81.0667H314.667ZM313.822 0V81.0667H315.511V0H313.822ZM314.667 80.2222H233.6V81.9111H314.667V80.2222Z" fill="#FDF6D3" mask="url(#path-7-inside-3_3461_37220)"/>
<mask id="path-9-inside-4_3461_37220" fill="white">
<path d="M314.667 0H395.733V81.0667H314.667V0Z"/>
</mask>
<path d="M395.733 81.0667V81.9111H396.578V81.0667H395.733ZM394.889 0V81.0667H396.578V0H394.889ZM395.733 80.2222H314.667V81.9111H395.733V80.2222Z" fill="#FDF6D3" mask="url(#path-9-inside-4_3461_37220)"/>
<mask id="path-11-inside-5_3461_37220" fill="white">
<path d="M395.733 0H476.8V81.0667H395.733V0Z"/>
</mask>
<path d="M476.8 81.0667V81.9111H477.644V81.0667H476.8ZM475.956 0V81.0667H477.644V0H475.956ZM476.8 80.2222H395.733V81.9111H476.8V80.2222Z" fill="#FDF6D3" mask="url(#path-11-inside-5_3461_37220)"/>
<mask id="path-13-inside-6_3461_37220" fill="white">
<path d="M476.8 0H557.867V81.0667H476.8V0Z"/>
</mask>
<path d="M557.867 81.0667V81.9111H558.711V81.0667H557.867ZM557.022 0V81.0667H558.711V0H557.022ZM557.867 80.2222H476.8V81.9111H557.867V80.2222Z" fill="#FDF6D3" mask="url(#path-13-inside-6_3461_37220)"/>
<mask id="path-15-inside-7_3461_37220" fill="white">
<path d="M557.867 0H638.933V81.0667H557.867V0Z"/>
</mask>
<path d="M638.933 81.0667V81.9111H639.778V81.0667H638.933ZM638.089 0V81.0667H639.778V0H638.089ZM638.933 80.2222H557.867V81.9111H638.933V80.2222Z" fill="#FDF6D3" mask="url(#path-15-inside-7_3461_37220)"/>
<mask id="path-17-inside-8_3461_37220" fill="white">
<path d="M638.933 0H720V81.0667H638.933V0Z"/>
</mask>
<path d="M720 81.0667V81.9111H720.844V81.0667H720ZM719.156 0V81.0667H720.844V0H719.156ZM720 80.2222H638.933V81.9111H720V80.2222Z" fill="#FDF6D3" mask="url(#path-17-inside-8_3461_37220)"/>
<mask id="path-19-inside-9_3461_37220" fill="white">
<path d="M720 0H801.067V81.0667H720V0Z"/>
</mask>
<path d="M801.067 81.0667V81.9111H801.911V81.0667H801.067ZM800.222 0V81.0667H801.911V0H800.222ZM801.067 80.2222H720V81.9111H801.067V80.2222Z" fill="#FDF6D3" mask="url(#path-19-inside-9_3461_37220)"/>
<mask id="path-21-inside-10_3461_37220" fill="white">
<path d="M801.067 0H882.133V81.0667H801.067V0Z"/>
</mask>
<path d="M882.133 81.0667V81.9111H882.978V81.0667H882.133ZM881.289 0V81.0667H882.978V0H881.289ZM882.133 80.2222H801.067V81.9111H882.133V80.2222Z" fill="#FDF6D3" mask="url(#path-21-inside-10_3461_37220)"/>
<mask id="path-23-inside-11_3461_37220" fill="white">
<path d="M882.133 0H963.2V81.0667H882.133V0Z"/>
</mask>
<path d="M963.2 81.0667V81.9111H964.044V81.0667H963.2ZM962.356 0V81.0667H964.044V0H962.356ZM963.2 80.2222H882.133V81.9111H963.2V80.2222Z" fill="#FDF6D3" mask="url(#path-23-inside-11_3461_37220)"/>
<mask id="path-25-inside-12_3461_37220" fill="white">
<path d="M963.2 0H1044.27V81.0667H963.2V0Z"/>
</mask>
<path d="M1044.27 81.0667V81.9111H1045.11V81.0667H1044.27ZM1043.42 0V81.0667H1045.11V0H1043.42ZM1044.27 80.2222H963.2V81.9111H1044.27V80.2222Z" fill="#FDF6D3" mask="url(#path-25-inside-12_3461_37220)"/>
<mask id="path-27-inside-13_3461_37220" fill="white">
<path d="M1044.27 0H1125.33V81.0667H1044.27V0Z"/>
</mask>
<path d="M1125.33 81.0667V81.9111H1126.18V81.0667H1125.33ZM1124.49 0V81.0667H1126.18V0H1124.49ZM1125.33 80.2222H1044.27V81.9111H1125.33V80.2222Z" fill="#FDF6D3" mask="url(#path-27-inside-13_3461_37220)"/>
<mask id="path-29-inside-14_3461_37220" fill="white">
<path d="M1125.33 0H1206.4V81.0667H1125.33V0Z"/>
</mask>
<path d="M1206.4 81.0667V81.9111H1207.24V81.0667H1206.4ZM1205.56 0V81.0667H1207.24V0H1205.56ZM1206.4 80.2222H1125.33V81.9111H1206.4V80.2222Z" fill="#FDF6D3" mask="url(#path-29-inside-14_3461_37220)"/>
<mask id="path-31-inside-15_3461_37220" fill="white">
<path d="M1206.4 0H1287.47V81.0667H1206.4V0Z"/>
</mask>
<path d="M1287.47 81.0667V81.9111H1288.31V81.0667H1287.47ZM1286.62 0V81.0667H1288.31V0H1286.62ZM1287.47 80.2222H1206.4V81.9111H1287.47V80.2222Z" fill="#FDF6D3" mask="url(#path-31-inside-15_3461_37220)"/>
<mask id="path-33-inside-16_3461_37220" fill="white">
<path d="M1287.47 0H1368.53V81.0667H1287.47V0Z"/>
</mask>
<path d="M1368.53 81.0667V81.9111H1369.38V81.0667H1368.53ZM1367.69 0V81.0667H1369.38V0H1367.69ZM1368.53 80.2222H1287.47V81.9111H1368.53V80.2222Z" fill="#FDF6D3" mask="url(#path-33-inside-16_3461_37220)"/>
<mask id="path-35-inside-17_3461_37220" fill="white">
<path d="M71.4667 81.0664H152.533V162.133H71.4667V81.0664Z"/>
</mask>
<path d="M152.533 162.133V162.978H153.378V162.133H152.533ZM151.689 81.0664V162.133H153.378V81.0664H151.689ZM152.533 161.289H71.4667V162.978H152.533V161.289Z" fill="#FDF6D3" mask="url(#path-35-inside-17_3461_37220)"/>
<mask id="path-37-inside-18_3461_37220" fill="white">
<path d="M152.533 81.0664H233.6V162.133H152.533V81.0664Z"/>
</mask>
<path d="M233.6 162.133V162.978H234.444V162.133H233.6ZM232.756 81.0664V162.133H234.444V81.0664H232.756ZM233.6 161.289H152.533V162.978H233.6V161.289Z" fill="#FDF6D3" mask="url(#path-37-inside-18_3461_37220)"/>
<mask id="path-39-inside-19_3461_37220" fill="white">
<path d="M233.6 81.0664H314.667V162.133H233.6V81.0664Z"/>
</mask>
<path d="M314.667 162.133V162.978H315.511V162.133H314.667ZM313.822 81.0664V162.133H315.511V81.0664H313.822ZM314.667 161.289H233.6V162.978H314.667V161.289Z" fill="#FDF6D3" mask="url(#path-39-inside-19_3461_37220)"/>
<mask id="path-41-inside-20_3461_37220" fill="white">
<path d="M314.667 81.0664H395.733V162.133H314.667V81.0664Z"/>
</mask>
<path d="M314.667 81.0664H395.733V162.133H314.667V81.0664Z" fill="#FEFBE9"/>
<path d="M395.733 162.133V162.978H396.578V162.133H395.733ZM394.889 81.0664V162.133H396.578V81.0664H394.889ZM395.733 161.289H314.667V162.978H395.733V161.289Z" fill="#FDF6D3" mask="url(#path-41-inside-20_3461_37220)"/>
<mask id="path-43-inside-21_3461_37220" fill="white">
<path d="M395.733 81.0664H476.8V162.133H395.733V81.0664Z"/>
</mask>
<path d="M476.8 162.133V162.978H477.644V162.133H476.8ZM475.956 81.0664V162.133H477.644V81.0664H475.956ZM476.8 161.289H395.733V162.978H476.8V161.289Z" fill="#FDF6D3" mask="url(#path-43-inside-21_3461_37220)"/>
<mask id="path-45-inside-22_3461_37220" fill="white">
<path d="M476.8 81.0664H557.867V162.133H476.8V81.0664Z"/>
</mask>
<path d="M557.867 162.133V162.978H558.711V162.133H557.867ZM557.022 81.0664V162.133H558.711V81.0664H557.022ZM557.867 161.289H476.8V162.978H557.867V161.289Z" fill="#FDF6D3" mask="url(#path-45-inside-22_3461_37220)"/>
<mask id="path-47-inside-23_3461_37220" fill="white">
<path d="M557.867 81.0664H638.933V162.133H557.867V81.0664Z"/>
</mask>
<path d="M638.933 162.133V162.978H639.778V162.133H638.933ZM638.089 81.0664V162.133H639.778V81.0664H638.089ZM638.933 161.289H557.867V162.978H638.933V161.289Z" fill="#FDF6D3" mask="url(#path-47-inside-23_3461_37220)"/>
<mask id="path-49-inside-24_3461_37220" fill="white">
<path d="M638.933 81.0664H720V162.133H638.933V81.0664Z"/>
</mask>
<path d="M720 162.133V162.978H720.844V162.133H720ZM719.156 81.0664V162.133H720.844V81.0664H719.156ZM720 161.289H638.933V162.978H720V161.289Z" fill="#FDF6D3" mask="url(#path-49-inside-24_3461_37220)"/>
<mask id="path-51-inside-25_3461_37220" fill="white">
<path d="M720 81.0664H801.067V162.133H720V81.0664Z"/>
</mask>
<path d="M801.067 162.133V162.978H801.911V162.133H801.067ZM800.222 81.0664V162.133H801.911V81.0664H800.222ZM801.067 161.289H720V162.978H801.067V161.289Z" fill="#FDF6D3" mask="url(#path-51-inside-25_3461_37220)"/>
<mask id="path-53-inside-26_3461_37220" fill="white">
<path d="M801.067 81.0664H882.133V162.133H801.067V81.0664Z"/>
</mask>
<path d="M882.133 162.133V162.978H882.978V162.133H882.133ZM881.289 81.0664V162.133H882.978V81.0664H881.289ZM882.133 161.289H801.067V162.978H882.133V161.289Z" fill="#FDF6D3" mask="url(#path-53-inside-26_3461_37220)"/>
<mask id="path-55-inside-27_3461_37220" fill="white">
<path d="M882.133 81.0664H963.2V162.133H882.133V81.0664Z"/>
</mask>
<path d="M963.2 162.133V162.978H964.044V162.133H963.2ZM962.356 81.0664V162.133H964.044V81.0664H962.356ZM963.2 161.289H882.133V162.978H963.2V161.289Z" fill="#FDF6D3" mask="url(#path-55-inside-27_3461_37220)"/>
<mask id="path-57-inside-28_3461_37220" fill="white">
<path d="M963.2 81.0664H1044.27V162.133H963.2V81.0664Z"/>
</mask>
<path d="M1044.27 162.133V162.978H1045.11V162.133H1044.27ZM1043.42 81.0664V162.133H1045.11V81.0664H1043.42ZM1044.27 161.289H963.2V162.978H1044.27V161.289Z" fill="#FDF6D3" mask="url(#path-57-inside-28_3461_37220)"/>
<mask id="path-59-inside-29_3461_37220" fill="white">
<path d="M1044.27 81.0664H1125.33V162.133H1044.27V81.0664Z"/>
</mask>
<path d="M1044.27 81.0664H1125.33V162.133H1044.27V81.0664Z" fill="#FEFBE9"/>
<path d="M1125.33 162.133V162.978H1126.18V162.133H1125.33ZM1124.49 81.0664V162.133H1126.18V81.0664H1124.49ZM1125.33 161.289H1044.27V162.978H1125.33V161.289Z" fill="#FDF6D3" mask="url(#path-59-inside-29_3461_37220)"/>
<mask id="path-61-inside-30_3461_37220" fill="white">
<path d="M1125.33 81.0664H1206.4V162.133H1125.33V81.0664Z"/>
</mask>
<path d="M1206.4 162.133V162.978H1207.24V162.133H1206.4ZM1205.56 81.0664V162.133H1207.24V81.0664H1205.56ZM1206.4 161.289H1125.33V162.978H1206.4V161.289Z" fill="#FDF6D3" mask="url(#path-61-inside-30_3461_37220)"/>
<mask id="path-63-inside-31_3461_37220" fill="white">
<path d="M1206.4 81.0664H1287.47V162.133H1206.4V81.0664Z"/>
</mask>
<path d="M1287.47 162.133V162.978H1288.31V162.133H1287.47ZM1286.62 81.0664V162.133H1288.31V81.0664H1286.62ZM1287.47 161.289H1206.4V162.978H1287.47V161.289Z" fill="#FDF6D3" mask="url(#path-63-inside-31_3461_37220)"/>
<mask id="path-65-inside-32_3461_37220" fill="white">
<path d="M1287.47 81.0664H1368.53V162.133H1287.47V81.0664Z"/>
</mask>
<path d="M1368.53 162.133V162.978H1369.38V162.133H1368.53ZM1367.69 81.0664V162.133H1369.38V81.0664H1367.69ZM1368.53 161.289H1287.47V162.978H1368.53V161.289Z" fill="#FDF6D3" mask="url(#path-65-inside-32_3461_37220)"/>
<mask id="path-67-inside-33_3461_37220" fill="white">
<path d="M71.4667 162.133H152.533V243.199H71.4667V162.133Z"/>
</mask>
<path d="M152.533 243.199V244.044H153.378V243.199H152.533ZM151.689 162.133V243.199H153.378V162.133H151.689ZM152.533 242.355H71.4667V244.044H152.533V242.355Z" fill="#FDF6D3" mask="url(#path-67-inside-33_3461_37220)"/>
<mask id="path-69-inside-34_3461_37220" fill="white">
<path d="M152.533 162.133H233.6V243.199H152.533V162.133Z"/>
</mask>
<path d="M233.6 243.199V244.044H234.444V243.199H233.6ZM232.756 162.133V243.199H234.444V162.133H232.756ZM233.6 242.355H152.533V244.044H233.6V242.355Z" fill="#FDF6D3" mask="url(#path-69-inside-34_3461_37220)"/>
<mask id="path-71-inside-35_3461_37220" fill="white">
<path d="M233.6 162.133H314.667V243.199H233.6V162.133Z"/>
</mask>
<path d="M314.667 243.199V244.044H315.511V243.199H314.667ZM313.822 162.133V243.199H315.511V162.133H313.822ZM314.667 242.355H233.6V244.044H314.667V242.355Z" fill="#FDF6D3" mask="url(#path-71-inside-35_3461_37220)"/>
<mask id="path-73-inside-36_3461_37220" fill="white">
<path d="M314.667 162.133H395.733V243.199H314.667V162.133Z"/>
</mask>
<path d="M395.733 243.199V244.044H396.578V243.199H395.733ZM394.889 162.133V243.199H396.578V162.133H394.889ZM395.733 242.355H314.667V244.044H395.733V242.355Z" fill="#FDF6D3" mask="url(#path-73-inside-36_3461_37220)"/>
<mask id="path-75-inside-37_3461_37220" fill="white">
<path d="M395.733 162.133H476.8V243.199H395.733V162.133Z"/>
</mask>
<path d="M476.8 243.199V244.044H477.644V243.199H476.8ZM475.956 162.133V243.199H477.644V162.133H475.956ZM476.8 242.355H395.733V244.044H476.8V242.355Z" fill="#FDF6D3" mask="url(#path-75-inside-37_3461_37220)"/>
<mask id="path-77-inside-38_3461_37220" fill="white">
<path d="M476.8 162.133H557.867V243.199H476.8V162.133Z"/>
</mask>
<path d="M476.8 162.133H557.867V243.199H476.8V162.133Z" fill="#FEFBE9"/>
<path d="M557.867 243.199V244.044H558.711V243.199H557.867ZM557.022 162.133V243.199H558.711V162.133H557.022ZM557.867 242.355H476.8V244.044H557.867V242.355Z" fill="#FDF6D3" mask="url(#path-77-inside-38_3461_37220)"/>
<mask id="path-79-inside-39_3461_37220" fill="white">
<path d="M557.867 162.133H638.933V243.199H557.867V162.133Z"/>
</mask>
<path d="M638.933 243.199V244.044H639.778V243.199H638.933ZM638.089 162.133V243.199H639.778V162.133H638.089ZM638.933 242.355H557.867V244.044H638.933V242.355Z" fill="#FDF6D3" mask="url(#path-79-inside-39_3461_37220)"/>
<mask id="path-81-inside-40_3461_37220" fill="white">
<path d="M638.933 162.133H720V243.199H638.933V162.133Z"/>
</mask>
<path d="M720 243.199V244.044H720.844V243.199H720ZM719.156 162.133V243.199H720.844V162.133H719.156ZM720 242.355H638.933V244.044H720V242.355Z" fill="#FDF6D3" mask="url(#path-81-inside-40_3461_37220)"/>
<mask id="path-83-inside-41_3461_37220" fill="white">
<path d="M720 162.133H801.067V243.199H720V162.133Z"/>
</mask>
<path d="M801.067 243.199V244.044H801.911V243.199H801.067ZM800.222 162.133V243.199H801.911V162.133H800.222ZM801.067 242.355H720V244.044H801.067V242.355Z" fill="#FDF6D3" mask="url(#path-83-inside-41_3461_37220)"/>
<mask id="path-85-inside-42_3461_37220" fill="white">
<path d="M801.067 162.133H882.133V243.199H801.067V162.133Z"/>
</mask>
<path d="M801.067 162.133H882.133V243.199H801.067V162.133Z" fill="#FEFBE9"/>
<path d="M882.133 243.199V244.044H882.978V243.199H882.133ZM881.289 162.133V243.199H882.978V162.133H881.289ZM882.133 242.355H801.067V244.044H882.133V242.355Z" fill="#FDF6D3" mask="url(#path-85-inside-42_3461_37220)"/>
<mask id="path-87-inside-43_3461_37220" fill="white">
<path d="M882.133 162.133H963.2V243.199H882.133V162.133Z"/>
</mask>
<path d="M963.2 243.199V244.044H964.044V243.199H963.2ZM962.356 162.133V243.199H964.044V162.133H962.356ZM963.2 242.355H882.133V244.044H963.2V242.355Z" fill="#FDF6D3" mask="url(#path-87-inside-43_3461_37220)"/>
<mask id="path-89-inside-44_3461_37220" fill="white">
<path d="M963.2 162.133H1044.27V243.199H963.2V162.133Z"/>
</mask>
<path d="M1044.27 243.199V244.044H1045.11V243.199H1044.27ZM1043.42 162.133V243.199H1045.11V162.133H1043.42ZM1044.27 242.355H963.2V244.044H1044.27V242.355Z" fill="#FDF6D3" mask="url(#path-89-inside-44_3461_37220)"/>
<mask id="path-91-inside-45_3461_37220" fill="white">
<path d="M1044.27 162.133H1125.33V243.199H1044.27V162.133Z"/>
</mask>
<path d="M1125.33 243.199V244.044H1126.18V243.199H1125.33ZM1124.49 162.133V243.199H1126.18V162.133H1124.49ZM1125.33 242.355H1044.27V244.044H1125.33V242.355Z" fill="#FDF6D3" mask="url(#path-91-inside-45_3461_37220)"/>
<mask id="path-93-inside-46_3461_37220" fill="white">
<path d="M1125.33 162.133H1206.4V243.199H1125.33V162.133Z"/>
</mask>
<path d="M1206.4 243.199V244.044H1207.24V243.199H1206.4ZM1205.56 162.133V243.199H1207.24V162.133H1205.56ZM1206.4 242.355H1125.33V244.044H1206.4V242.355Z" fill="#FDF6D3" mask="url(#path-93-inside-46_3461_37220)"/>
<mask id="path-95-inside-47_3461_37220" fill="white">
<path d="M1206.4 162.133H1287.47V243.199H1206.4V162.133Z"/>
</mask>
<path d="M1287.47 243.199V244.044H1288.31V243.199H1287.47ZM1286.62 162.133V243.199H1288.31V162.133H1286.62ZM1287.47 242.355H1206.4V244.044H1287.47V242.355Z" fill="#FDF6D3" mask="url(#path-95-inside-47_3461_37220)"/>
<mask id="path-97-inside-48_3461_37220" fill="white">
<path d="M1287.47 162.133H1368.53V243.199H1287.47V162.133Z"/>
</mask>
<path d="M1368.53 243.199V244.044H1369.38V243.199H1368.53ZM1367.69 162.133V243.199H1369.38V162.133H1367.69ZM1368.53 242.355H1287.47V244.044H1368.53V242.355Z" fill="#FDF6D3" mask="url(#path-97-inside-48_3461_37220)"/>
<mask id="path-99-inside-49_3461_37220" fill="white">
<path d="M71.4667 243.199H152.533V324.266H71.4667V243.199Z"/>
</mask>
<path d="M71.4667 243.199H152.533V324.266H71.4667V243.199Z" fill="#FEFBE9"/>
<path d="M152.533 324.266V325.11H153.378V324.266H152.533ZM151.689 243.199V324.266H153.378V243.199H151.689ZM152.533 323.421H71.4667V325.11H152.533V323.421Z" fill="#FDF6D3" mask="url(#path-99-inside-49_3461_37220)"/>
<mask id="path-101-inside-50_3461_37220" fill="white">
<path d="M152.533 243.199H233.6V324.266H152.533V243.199Z"/>
</mask>
<path d="M233.6 324.266V325.11H234.444V324.266H233.6ZM232.756 243.199V324.266H234.444V243.199H232.756ZM233.6 323.421H152.533V325.11H233.6V323.421Z" fill="#FDF6D3" mask="url(#path-101-inside-50_3461_37220)"/>
<mask id="path-103-inside-51_3461_37220" fill="white">
<path d="M233.6 243.199H314.667V324.266H233.6V243.199Z"/>
</mask>
<path d="M314.667 324.266V325.11H315.511V324.266H314.667ZM313.822 243.199V324.266H315.511V243.199H313.822ZM314.667 323.421H233.6V325.11H314.667V323.421Z" fill="#FDF6D3" mask="url(#path-103-inside-51_3461_37220)"/>
<mask id="path-105-inside-52_3461_37220" fill="white">
<path d="M314.667 243.199H395.733V324.266H314.667V243.199Z"/>
</mask>
<path d="M395.733 324.266V325.11H396.578V324.266H395.733ZM394.889 243.199V324.266H396.578V243.199H394.889ZM395.733 323.421H314.667V325.11H395.733V323.421Z" fill="#FDF6D3" mask="url(#path-105-inside-52_3461_37220)"/>
<mask id="path-107-inside-53_3461_37220" fill="white">
<path d="M395.733 243.199H476.8V324.266H395.733V243.199Z"/>
</mask>
<path d="M476.8 324.266V325.11H477.644V324.266H476.8ZM475.956 243.199V324.266H477.644V243.199H475.956ZM476.8 323.421H395.733V325.11H476.8V323.421Z" fill="#FDF6D3" mask="url(#path-107-inside-53_3461_37220)"/>
<mask id="path-109-inside-54_3461_37220" fill="white">
<path d="M476.8 243.199H557.867V324.266H476.8V243.199Z"/>
</mask>
<path d="M557.867 324.266V325.11H558.711V324.266H557.867ZM557.022 243.199V324.266H558.711V243.199H557.022ZM557.867 323.421H476.8V325.11H557.867V323.421Z" fill="#FDF6D3" mask="url(#path-109-inside-54_3461_37220)"/>
<mask id="path-111-inside-55_3461_37220" fill="white">
<path d="M557.867 243.199H638.933V324.266H557.867V243.199Z"/>
</mask>
<path d="M638.933 324.266V325.11H639.778V324.266H638.933ZM638.089 243.199V324.266H639.778V243.199H638.089ZM638.933 323.421H557.867V325.11H638.933V323.421Z" fill="#FDF6D3" mask="url(#path-111-inside-55_3461_37220)"/>
<mask id="path-113-inside-56_3461_37220" fill="white">
<path d="M638.933 243.199H720V324.266H638.933V243.199Z"/>
</mask>
<path d="M720 324.266V325.11H720.844V324.266H720ZM719.156 243.199V324.266H720.844V243.199H719.156ZM720 323.421H638.933V325.11H720V323.421Z" fill="#FDF6D3" mask="url(#path-113-inside-56_3461_37220)"/>
<mask id="path-115-inside-57_3461_37220" fill="white">
<path d="M720 243.199H801.067V324.266H720V243.199Z"/>
</mask>
<path d="M801.067 324.266V325.11H801.911V324.266H801.067ZM800.222 243.199V324.266H801.911V243.199H800.222ZM801.067 323.421H720V325.11H801.067V323.421Z" fill="#FDF6D3" mask="url(#path-115-inside-57_3461_37220)"/>
<mask id="path-117-inside-58_3461_37220" fill="white">
<path d="M801.067 243.199H882.133V324.266H801.067V243.199Z"/>
</mask>
<path d="M882.133 324.266V325.11H882.978V324.266H882.133ZM881.289 243.199V324.266H882.978V243.199H881.289ZM882.133 323.421H801.067V325.11H882.133V323.421Z" fill="#FDF6D3" mask="url(#path-117-inside-58_3461_37220)"/>
<mask id="path-119-inside-59_3461_37220" fill="white">
<path d="M882.133 243.199H963.2V324.266H882.133V243.199Z"/>
</mask>
<path d="M963.2 324.266V325.11H964.044V324.266H963.2ZM962.356 243.199V324.266H964.044V243.199H962.356ZM963.2 323.421H882.133V325.11H963.2V323.421Z" fill="#FDF6D3" mask="url(#path-119-inside-59_3461_37220)"/>
<mask id="path-121-inside-60_3461_37220" fill="white">
<path d="M963.2 243.199H1044.27V324.266H963.2V243.199Z"/>
</mask>
<path d="M1044.27 324.266V325.11H1045.11V324.266H1044.27ZM1043.42 243.199V324.266H1045.11V243.199H1043.42ZM1044.27 323.421H963.2V325.11H1044.27V323.421Z" fill="#FDF6D3" mask="url(#path-121-inside-60_3461_37220)"/>
<mask id="path-123-inside-61_3461_37220" fill="white">
<path d="M1044.27 243.199H1125.33V324.266H1044.27V243.199Z"/>
</mask>
<path d="M1044.27 243.199H1125.33V324.266H1044.27V243.199Z" fill="#FEFBE9"/>
<path d="M1125.33 324.266V325.11H1126.18V324.266H1125.33ZM1124.49 243.199V324.266H1126.18V243.199H1124.49ZM1125.33 323.421H1044.27V325.11H1125.33V323.421Z" fill="#FDF6D3" mask="url(#path-123-inside-61_3461_37220)"/>
<mask id="path-125-inside-62_3461_37220" fill="white">
<path d="M1125.33 243.199H1206.4V324.266H1125.33V243.199Z"/>
</mask>
<path d="M1206.4 324.266V325.11H1207.24V324.266H1206.4ZM1205.56 243.199V324.266H1207.24V243.199H1205.56ZM1206.4 323.421H1125.33V325.11H1206.4V323.421Z" fill="#FDF6D3" mask="url(#path-125-inside-62_3461_37220)"/>
<mask id="path-127-inside-63_3461_37220" fill="white">
<path d="M1206.4 243.199H1287.47V324.266H1206.4V243.199Z"/>
</mask>
<path d="M1287.47 324.266V325.11H1288.31V324.266H1287.47ZM1286.62 243.199V324.266H1288.31V243.199H1286.62ZM1287.47 323.421H1206.4V325.11H1287.47V323.421Z" fill="#FDF6D3" mask="url(#path-127-inside-63_3461_37220)"/>
<mask id="path-129-inside-64_3461_37220" fill="white">
<path d="M1287.47 243.199H1368.53V324.266H1287.47V243.199Z"/>
</mask>
<path d="M1368.53 324.266V325.11H1369.38V324.266H1368.53ZM1367.69 243.199V324.266H1369.38V243.199H1367.69ZM1368.53 323.421H1287.47V325.11H1368.53V323.421Z" fill="#FDF6D3" mask="url(#path-129-inside-64_3461_37220)"/>
<mask id="path-131-inside-65_3461_37220" fill="white">
<path d="M71.4667 324.268H152.533V405.334H71.4667V324.268Z"/>
</mask>
<path d="M152.533 405.334V406.179H153.378V405.334H152.533ZM151.689 324.268V405.334H153.378V324.268H151.689ZM152.533 404.49H71.4667V406.179H152.533V404.49Z" fill="#FDF6D3" mask="url(#path-131-inside-65_3461_37220)"/>
<mask id="path-133-inside-66_3461_37220" fill="white">
<path d="M152.533 324.268H233.6V405.334H152.533V324.268Z"/>
</mask>
<path d="M233.6 405.334V406.179H234.444V405.334H233.6ZM232.756 324.268V405.334H234.444V324.268H232.756ZM233.6 404.49H152.533V406.179H233.6V404.49Z" fill="#FDF6D3" mask="url(#path-133-inside-66_3461_37220)"/>
<mask id="path-135-inside-67_3461_37220" fill="white">
<path d="M233.6 324.268H314.667V405.334H233.6V324.268Z"/>
</mask>
<path d="M314.667 405.334V406.179H315.511V405.334H314.667ZM313.822 324.268V405.334H315.511V324.268H313.822ZM314.667 404.49H233.6V406.179H314.667V404.49Z" fill="#FDF6D3" mask="url(#path-135-inside-67_3461_37220)"/>
<mask id="path-137-inside-68_3461_37220" fill="white">
<path d="M314.667 324.268H395.733V405.334H314.667V324.268Z"/>
</mask>
<path d="M395.733 405.334V406.179H396.578V405.334H395.733ZM394.889 324.268V405.334H396.578V324.268H394.889ZM395.733 404.49H314.667V406.179H395.733V404.49Z" fill="#FDF6D3" mask="url(#path-137-inside-68_3461_37220)"/>
<mask id="path-139-inside-69_3461_37220" fill="white">
<path d="M395.733 324.268H476.8V405.334H395.733V324.268Z"/>
</mask>
<path d="M476.8 405.334V406.179H477.644V405.334H476.8ZM475.956 324.268V405.334H477.644V324.268H475.956ZM476.8 404.49H395.733V406.179H476.8V404.49Z" fill="#FDF6D3" mask="url(#path-139-inside-69_3461_37220)"/>
<mask id="path-141-inside-70_3461_37220" fill="white">
<path d="M476.8 324.268H557.867V405.334H476.8V324.268Z"/>
</mask>
<path d="M557.867 405.334V406.179H558.711V405.334H557.867ZM557.022 324.268V405.334H558.711V324.268H557.022ZM557.867 404.49H476.8V406.179H557.867V404.49Z" fill="#FDF6D3" mask="url(#path-141-inside-70_3461_37220)"/>
<mask id="path-143-inside-71_3461_37220" fill="white">
<path d="M557.867 324.268H638.933V405.334H557.867V324.268Z"/>
</mask>
<path d="M557.867 324.268H638.933V405.334H557.867V324.268Z" fill="#FEFBE9"/>
<path d="M638.933 405.334V406.179H639.778V405.334H638.933ZM638.089 324.268V405.334H639.778V324.268H638.089ZM638.933 404.49H557.867V406.179H638.933V404.49Z" fill="#FDF6D3" mask="url(#path-143-inside-71_3461_37220)"/>
<mask id="path-145-inside-72_3461_37220" fill="white">
<path d="M638.933 324.268H720V405.334H638.933V324.268Z"/>
</mask>
<path d="M720 405.334V406.179H720.844V405.334H720ZM719.156 324.268V405.334H720.844V324.268H719.156ZM720 404.49H638.933V406.179H720V404.49Z" fill="#FDF6D3" mask="url(#path-145-inside-72_3461_37220)"/>
<mask id="path-147-inside-73_3461_37220" fill="white">
<path d="M720 324.268H801.067V405.334H720V324.268Z"/>
</mask>
<path d="M801.067 405.334V406.179H801.911V405.334H801.067ZM800.222 324.268V405.334H801.911V324.268H800.222ZM801.067 404.49H720V406.179H801.067V404.49Z" fill="#FDF6D3" mask="url(#path-147-inside-73_3461_37220)"/>
<mask id="path-149-inside-74_3461_37220" fill="white">
<path d="M801.067 324.268H882.133V405.334H801.067V324.268Z"/>
</mask>
<path d="M882.133 405.334V406.179H882.978V405.334H882.133ZM881.289 324.268V405.334H882.978V324.268H881.289ZM882.133 404.49H801.067V406.179H882.133V404.49Z" fill="#FDF6D3" mask="url(#path-149-inside-74_3461_37220)"/>
<mask id="path-151-inside-75_3461_37220" fill="white">
<path d="M882.133 324.268H963.2V405.334H882.133V324.268Z"/>
</mask>
<path d="M963.2 405.334V406.179H964.044V405.334H963.2ZM962.356 324.268V405.334H964.044V324.268H962.356ZM963.2 404.49H882.133V406.179H963.2V404.49Z" fill="#FDF6D3" mask="url(#path-151-inside-75_3461_37220)"/>
<mask id="path-153-inside-76_3461_37220" fill="white">
<path d="M963.2 324.268H1044.27V405.334H963.2V324.268Z"/>
</mask>
<path d="M1044.27 405.334V406.179H1045.11V405.334H1044.27ZM1043.42 324.268V405.334H1045.11V324.268H1043.42ZM1044.27 404.49H963.2V406.179H1044.27V404.49Z" fill="#FDF6D3" mask="url(#path-153-inside-76_3461_37220)"/>
<mask id="path-155-inside-77_3461_37220" fill="white">
<path d="M1044.27 324.268H1125.33V405.334H1044.27V324.268Z"/>
</mask>
<path d="M1125.33 405.334V406.179H1126.18V405.334H1125.33ZM1124.49 324.268V405.334H1126.18V324.268H1124.49ZM1125.33 404.49H1044.27V406.179H1125.33V404.49Z" fill="#FDF6D3" mask="url(#path-155-inside-77_3461_37220)"/>
<mask id="path-157-inside-78_3461_37220" fill="white">
<path d="M1125.33 324.268H1206.4V405.334H1125.33V324.268Z"/>
</mask>
<path d="M1206.4 405.334V406.179H1207.24V405.334H1206.4ZM1205.56 324.268V405.334H1207.24V324.268H1205.56ZM1206.4 404.49H1125.33V406.179H1206.4V404.49Z" fill="#FDF6D3" mask="url(#path-157-inside-78_3461_37220)"/>
<mask id="path-159-inside-79_3461_37220" fill="white">
<path d="M1206.4 324.268H1287.47V405.334H1206.4V324.268Z"/>
</mask>
<path d="M1287.47 405.334V406.179H1288.31V405.334H1287.47ZM1286.62 324.268V405.334H1288.31V324.268H1286.62ZM1287.47 404.49H1206.4V406.179H1287.47V404.49Z" fill="#FDF6D3" mask="url(#path-159-inside-79_3461_37220)"/>
<mask id="path-161-inside-80_3461_37220" fill="white">
<path d="M1287.47 324.268H1368.53V405.334H1287.47V324.268Z"/>
</mask>
<path d="M1368.53 405.334V406.179H1369.38V405.334H1368.53ZM1367.69 324.268V405.334H1369.38V324.268H1367.69ZM1368.53 404.49H1287.47V406.179H1368.53V404.49Z" fill="#FDF6D3" mask="url(#path-161-inside-80_3461_37220)"/>
<mask id="path-163-inside-81_3461_37220" fill="white">
<path d="M71.4667 405.334H152.533V486.401H71.4667V405.334Z"/>
</mask>
<path d="M152.533 486.401V487.245H153.378V486.401H152.533ZM151.689 405.334V486.401H153.378V405.334H151.689ZM152.533 485.556H71.4667V487.245H152.533V485.556Z" fill="#FDF6D3" mask="url(#path-163-inside-81_3461_37220)"/>
<mask id="path-165-inside-82_3461_37220" fill="white">
<path d="M152.533 405.334H233.6V486.401H152.533V405.334Z"/>
</mask>
<path d="M233.6 486.401V487.245H234.444V486.401H233.6ZM232.756 405.334V486.401H234.444V405.334H232.756ZM233.6 485.556H152.533V487.245H233.6V485.556Z" fill="#FDF6D3" mask="url(#path-165-inside-82_3461_37220)"/>
<mask id="path-167-inside-83_3461_37220" fill="white">
<path d="M233.6 405.334H314.667V486.401H233.6V405.334Z"/>
</mask>
<path d="M314.667 486.401V487.245H315.511V486.401H314.667ZM313.822 405.334V486.401H315.511V405.334H313.822ZM314.667 485.556H233.6V487.245H314.667V485.556Z" fill="#FDF6D3" mask="url(#path-167-inside-83_3461_37220)"/>
<mask id="path-169-inside-84_3461_37220" fill="white">
<path d="M314.667 405.334H395.733V486.401H314.667V405.334Z"/>
</mask>
<path d="M314.667 405.334H395.733V486.401H314.667V405.334Z" fill="#FEFBE9"/>
<path d="M395.733 486.401V487.245H396.578V486.401H395.733ZM394.889 405.334V486.401H396.578V405.334H394.889ZM395.733 485.556H314.667V487.245H395.733V485.556Z" fill="#FDF6D3" mask="url(#path-169-inside-84_3461_37220)"/>
<mask id="path-171-inside-85_3461_37220" fill="white">
<path d="M395.733 405.334H476.8V486.401H395.733V405.334Z"/>
</mask>
<path d="M476.8 486.401V487.245H477.644V486.401H476.8ZM475.956 405.334V486.401H477.644V405.334H475.956ZM476.8 485.556H395.733V487.245H476.8V485.556Z" fill="#FDF6D3" mask="url(#path-171-inside-85_3461_37220)"/>
<mask id="path-173-inside-86_3461_37220" fill="white">
<path d="M476.8 405.334H557.867V486.401H476.8V405.334Z"/>
</mask>
<path d="M557.867 486.401V487.245H558.711V486.401H557.867ZM557.022 405.334V486.401H558.711V405.334H557.022ZM557.867 485.556H476.8V487.245H557.867V485.556Z" fill="#FDF6D3" mask="url(#path-173-inside-86_3461_37220)"/>
<mask id="path-175-inside-87_3461_37220" fill="white">
<path d="M557.867 405.334H638.933V486.401H557.867V405.334Z"/>
</mask>
<path d="M638.933 486.401V487.245H639.778V486.401H638.933ZM638.089 405.334V486.401H639.778V405.334H638.089ZM638.933 485.556H557.867V487.245H638.933V485.556Z" fill="#FDF6D3" mask="url(#path-175-inside-87_3461_37220)"/>
<mask id="path-177-inside-88_3461_37220" fill="white">
<path d="M638.933 405.334H720V486.401H638.933V405.334Z"/>
</mask>
<path d="M720 486.401V487.245H720.844V486.401H720ZM719.156 405.334V486.401H720.844V405.334H719.156ZM720 485.556H638.933V487.245H720V485.556Z" fill="#FDF6D3" mask="url(#path-177-inside-88_3461_37220)"/>
<mask id="path-179-inside-89_3461_37220" fill="white">
<path d="M720 405.334H801.067V486.401H720V405.334Z"/>
</mask>
<path d="M801.067 486.401V487.245H801.911V486.401H801.067ZM800.222 405.334V486.401H801.911V405.334H800.222ZM801.067 485.556H720V487.245H801.067V485.556Z" fill="#FDF6D3" mask="url(#path-179-inside-89_3461_37220)"/>
<mask id="path-181-inside-90_3461_37220" fill="white">
<path d="M801.067 405.334H882.133V486.401H801.067V405.334Z"/>
</mask>
<path d="M801.067 405.334H882.133V486.401H801.067V405.334Z" fill="#FEFBE9"/>
<path d="M882.133 486.401V487.245H882.978V486.401H882.133ZM881.289 405.334V486.401H882.978V405.334H881.289ZM882.133 485.556H801.067V487.245H882.133V485.556Z" fill="#FDF6D3" mask="url(#path-181-inside-90_3461_37220)"/>
<mask id="path-183-inside-91_3461_37220" fill="white">
<path d="M882.133 405.334H963.2V486.401H882.133V405.334Z"/>
</mask>
<path d="M963.2 486.401V487.245H964.044V486.401H963.2ZM962.356 405.334V486.401H964.044V405.334H962.356ZM963.2 485.556H882.133V487.245H963.2V485.556Z" fill="#FDF6D3" mask="url(#path-183-inside-91_3461_37220)"/>
<mask id="path-185-inside-92_3461_37220" fill="white">
<path d="M963.2 405.334H1044.27V486.401H963.2V405.334Z"/>
</mask>
<path d="M1044.27 486.401V487.245H1045.11V486.401H1044.27ZM1043.42 405.334V486.401H1045.11V405.334H1043.42ZM1044.27 485.556H963.2V487.245H1044.27V485.556Z" fill="#FDF6D3" mask="url(#path-185-inside-92_3461_37220)"/>
<mask id="path-187-inside-93_3461_37220" fill="white">
<path d="M1044.27 405.334H1125.33V486.401H1044.27V405.334Z"/>
</mask>
<path d="M1125.33 486.401V487.245H1126.18V486.401H1125.33ZM1124.49 405.334V486.401H1126.18V405.334H1124.49ZM1125.33 485.556H1044.27V487.245H1125.33V485.556Z" fill="#FDF6D3" mask="url(#path-187-inside-93_3461_37220)"/>
<mask id="path-189-inside-94_3461_37220" fill="white">
<path d="M1125.33 405.334H1206.4V486.401H1125.33V405.334Z"/>
</mask>
<path d="M1206.4 486.401V487.245H1207.24V486.401H1206.4ZM1205.56 405.334V486.401H1207.24V405.334H1205.56ZM1206.4 485.556H1125.33V487.245H1206.4V485.556Z" fill="#FDF6D3" mask="url(#path-189-inside-94_3461_37220)"/>
<mask id="path-191-inside-95_3461_37220" fill="white">
<path d="M1206.4 405.334H1287.47V486.401H1206.4V405.334Z"/>
</mask>
<path d="M1287.47 486.401V487.245H1288.31V486.401H1287.47ZM1286.62 405.334V486.401H1288.31V405.334H1286.62ZM1287.47 485.556H1206.4V487.245H1287.47V485.556Z" fill="#FDF6D3" mask="url(#path-191-inside-95_3461_37220)"/>
<mask id="path-193-inside-96_3461_37220" fill="white">
<path d="M1287.47 405.334H1368.53V486.401H1287.47V405.334Z"/>
</mask>
<path d="M1368.53 486.401V487.245H1369.38V486.401H1368.53ZM1367.69 405.334V486.401H1369.38V405.334H1367.69ZM1368.53 485.556H1287.47V487.245H1368.53V485.556Z" fill="#FDF6D3" mask="url(#path-193-inside-96_3461_37220)"/>
<mask id="path-195-inside-97_3461_37220" fill="white">
<path d="M71.4667 486.4H152.533V567.467H71.4667V486.4Z"/>
</mask>
<path d="M152.533 567.467V568.312H153.378V567.467H152.533ZM151.689 486.4V567.467H153.378V486.4H151.689ZM152.533 566.623H71.4667V568.312H152.533V566.623Z" fill="#FDF6D3" mask="url(#path-195-inside-97_3461_37220)"/>
<mask id="path-197-inside-98_3461_37220" fill="white">
<path d="M152.533 486.4H233.6V567.467H152.533V486.4Z"/>
</mask>
<path d="M152.533 486.4H233.6V567.467H152.533V486.4Z" fill="#FEFBE9"/>
<path d="M233.6 567.467V568.312H234.444V567.467H233.6ZM232.756 486.4V567.467H234.444V486.4H232.756ZM233.6 566.623H152.533V568.312H233.6V566.623Z" fill="#FDF6D3" mask="url(#path-197-inside-98_3461_37220)"/>
<mask id="path-199-inside-99_3461_37220" fill="white">
<path d="M233.6 486.4H314.667V567.467H233.6V486.4Z"/>
</mask>
<path d="M314.667 567.467V568.312H315.511V567.467H314.667ZM313.822 486.4V567.467H315.511V486.4H313.822ZM314.667 566.623H233.6V568.312H314.667V566.623Z" fill="#FDF6D3" mask="url(#path-199-inside-99_3461_37220)"/>
<mask id="path-201-inside-100_3461_37220" fill="white">
<path d="M314.667 486.4H395.733V567.467H314.667V486.4Z"/>
</mask>
<path d="M395.733 567.467V568.312H396.578V567.467H395.733ZM394.889 486.4V567.467H396.578V486.4H394.889ZM395.733 566.623H314.667V568.312H395.733V566.623Z" fill="#FDF6D3" mask="url(#path-201-inside-100_3461_37220)"/>
<mask id="path-203-inside-101_3461_37220" fill="white">
<path d="M395.733 486.4H476.8V567.467H395.733V486.4Z"/>
</mask>
<path d="M476.8 567.467V568.312H477.644V567.467H476.8ZM475.956 486.4V567.467H477.644V486.4H475.956ZM476.8 566.623H395.733V568.312H476.8V566.623Z" fill="#FDF6D3" mask="url(#path-203-inside-101_3461_37220)"/>
<mask id="path-205-inside-102_3461_37220" fill="white">
<path d="M476.8 486.4H557.867V567.467H476.8V486.4Z"/>
</mask>
<path d="M557.867 567.467V568.312H558.711V567.467H557.867ZM557.022 486.4V567.467H558.711V486.4H557.022ZM557.867 566.623H476.8V568.312H557.867V566.623Z" fill="#FDF6D3" mask="url(#path-205-inside-102_3461_37220)"/>
<mask id="path-207-inside-103_3461_37220" fill="white">
<path d="M557.867 486.4H638.933V567.467H557.867V486.4Z"/>
</mask>
<path d="M638.933 567.467V568.312H639.778V567.467H638.933ZM638.089 486.4V567.467H639.778V486.4H638.089ZM638.933 566.623H557.867V568.312H638.933V566.623Z" fill="#FDF6D3" mask="url(#path-207-inside-103_3461_37220)"/>
<mask id="path-209-inside-104_3461_37220" fill="white">
<path d="M638.933 486.4H720V567.467H638.933V486.4Z"/>
</mask>
<path d="M720 567.467V568.312H720.844V567.467H720ZM719.156 486.4V567.467H720.844V486.4H719.156ZM720 566.623H638.933V568.312H720V566.623Z" fill="#FDF6D3" mask="url(#path-209-inside-104_3461_37220)"/>
<mask id="path-211-inside-105_3461_37220" fill="white">
<path d="M720 486.4H801.067V567.467H720V486.4Z"/>
</mask>
<path d="M801.067 567.467V568.312H801.911V567.467H801.067ZM800.222 486.4V567.467H801.911V486.4H800.222ZM801.067 566.623H720V568.312H801.067V566.623Z" fill="#FDF6D3" mask="url(#path-211-inside-105_3461_37220)"/>
<mask id="path-213-inside-106_3461_37220" fill="white">
<path d="M801.067 486.4H882.133V567.467H801.067V486.4Z"/>
</mask>
<path d="M882.133 567.467V568.312H882.978V567.467H882.133ZM881.289 486.4V567.467H882.978V486.4H881.289ZM882.133 566.623H801.067V568.312H882.133V566.623Z" fill="#FDF6D3" mask="url(#path-213-inside-106_3461_37220)"/>
<mask id="path-215-inside-107_3461_37220" fill="white">
<path d="M882.133 486.4H963.2V567.467H882.133V486.4Z"/>
</mask>
<path d="M963.2 567.467V568.312H964.044V567.467H963.2ZM962.356 486.4V567.467H964.044V486.4H962.356ZM963.2 566.623H882.133V568.312H963.2V566.623Z" fill="#FDF6D3" mask="url(#path-215-inside-107_3461_37220)"/>
<mask id="path-217-inside-108_3461_37220" fill="white">
<path d="M963.2 486.4H1044.27V567.467H963.2V486.4Z"/>
</mask>
<path d="M1044.27 567.467V568.312H1045.11V567.467H1044.27ZM1043.42 486.4V567.467H1045.11V486.4H1043.42ZM1044.27 566.623H963.2V568.312H1044.27V566.623Z" fill="#FDF6D3" mask="url(#path-217-inside-108_3461_37220)"/>
<mask id="path-219-inside-109_3461_37220" fill="white">
<path d="M1044.27 486.4H1125.33V567.467H1044.27V486.4Z"/>
</mask>
<path d="M1125.33 567.467V568.312H1126.18V567.467H1125.33ZM1124.49 486.4V567.467H1126.18V486.4H1124.49ZM1125.33 566.623H1044.27V568.312H1125.33V566.623Z" fill="#FDF6D3" mask="url(#path-219-inside-109_3461_37220)"/>
<mask id="path-221-inside-110_3461_37220" fill="white">
<path d="M1125.33 486.4H1206.4V567.467H1125.33V486.4Z"/>
</mask>
<path d="M1206.4 567.467V568.312H1207.24V567.467H1206.4ZM1205.56 486.4V567.467H1207.24V486.4H1205.56ZM1206.4 566.623H1125.33V568.312H1206.4V566.623Z" fill="#FDF6D3" mask="url(#path-221-inside-110_3461_37220)"/>
<mask id="path-223-inside-111_3461_37220" fill="white">
<path d="M1206.4 486.4H1287.47V567.467H1206.4V486.4Z"/>
</mask>
<path d="M1206.4 486.4H1287.47V567.467H1206.4V486.4Z" fill="#FEFBE9"/>
<path d="M1287.47 567.467V568.312H1288.31V567.467H1287.47ZM1286.62 486.4V567.467H1288.31V486.4H1286.62ZM1287.47 566.623H1206.4V568.312H1287.47V566.623Z" fill="#FDF6D3" mask="url(#path-223-inside-111_3461_37220)"/>
<mask id="path-225-inside-112_3461_37220" fill="white">
<path d="M1287.47 486.4H1368.53V567.467H1287.47V486.4Z"/>
</mask>
<path d="M1368.53 567.467V568.312H1369.38V567.467H1368.53ZM1367.69 486.4V567.467H1369.38V486.4H1367.69ZM1368.53 566.623H1287.47V568.312H1368.53V566.623Z" fill="#FDF6D3" mask="url(#path-225-inside-112_3461_37220)"/>
<mask id="path-227-inside-113_3461_37220" fill="white">
<path d="M71.4667 567.467H152.533V648.533H71.4667V567.467Z"/>
</mask>
<path d="M152.533 648.533V649.378H153.378V648.533H152.533ZM151.689 567.467V648.533H153.378V567.467H151.689ZM152.533 647.689H71.4667V649.378H152.533V647.689Z" fill="#FDF6D3" mask="url(#path-227-inside-113_3461_37220)"/>
<mask id="path-229-inside-114_3461_37220" fill="white">
<path d="M152.533 567.467H233.6V648.533H152.533V567.467Z"/>
</mask>
<path d="M233.6 648.533V649.378H234.444V648.533H233.6ZM232.756 567.467V648.533H234.444V567.467H232.756ZM233.6 647.689H152.533V649.378H233.6V647.689Z" fill="#FDF6D3" mask="url(#path-229-inside-114_3461_37220)"/>
<mask id="path-231-inside-115_3461_37220" fill="white">
<path d="M233.6 567.467H314.667V648.533H233.6V567.467Z"/>
</mask>
<path d="M314.667 648.533V649.378H315.511V648.533H314.667ZM313.822 567.467V648.533H315.511V567.467H313.822ZM314.667 647.689H233.6V649.378H314.667V647.689Z" fill="#FDF6D3" mask="url(#path-231-inside-115_3461_37220)"/>
<mask id="path-233-inside-116_3461_37220" fill="white">
<path d="M314.667 567.467H395.733V648.533H314.667V567.467Z"/>
</mask>
<path d="M395.733 648.533V649.378H396.578V648.533H395.733ZM394.889 567.467V648.533H396.578V567.467H394.889ZM395.733 647.689H314.667V649.378H395.733V647.689Z" fill="#FDF6D3" mask="url(#path-233-inside-116_3461_37220)"/>
<mask id="path-235-inside-117_3461_37220" fill="white">
<path d="M395.733 567.467H476.8V648.533H395.733V567.467Z"/>
</mask>
<path d="M476.8 648.533V649.378H477.644V648.533H476.8ZM475.956 567.467V648.533H477.644V567.467H475.956ZM476.8 647.689H395.733V649.378H476.8V647.689Z" fill="#FDF6D3" mask="url(#path-235-inside-117_3461_37220)"/>
<mask id="path-237-inside-118_3461_37220" fill="white">
<path d="M476.8 567.467H557.867V648.533H476.8V567.467Z"/>
</mask>
<path d="M557.867 648.533V649.378H558.711V648.533H557.867ZM557.022 567.467V648.533H558.711V567.467H557.022ZM557.867 647.689H476.8V649.378H557.867V647.689Z" fill="#FDF6D3" mask="url(#path-237-inside-118_3461_37220)"/>
<mask id="path-239-inside-119_3461_37220" fill="white">
<path d="M557.867 567.467H638.933V648.533H557.867V567.467Z"/>
</mask>
<path d="M557.867 567.467H638.933V648.533H557.867V567.467Z" fill="#FEFBE9"/>
<path d="M638.933 648.533V649.378H639.778V648.533H638.933ZM638.089 567.467V648.533H639.778V567.467H638.089ZM638.933 647.689H557.867V649.378H638.933V647.689Z" fill="#FDF6D3" mask="url(#path-239-inside-119_3461_37220)"/>
<mask id="path-241-inside-120_3461_37220" fill="white">
<path d="M638.933 567.467H720V648.533H638.933V567.467Z"/>
</mask>
<path d="M720 648.533V649.378H720.844V648.533H720ZM719.156 567.467V648.533H720.844V567.467H719.156ZM720 647.689H638.933V649.378H720V647.689Z" fill="#FDF6D3" mask="url(#path-241-inside-120_3461_37220)"/>
<mask id="path-243-inside-121_3461_37220" fill="white">
<path d="M720 567.467H801.067V648.533H720V567.467Z"/>
</mask>
<path d="M801.067 648.533V649.378H801.911V648.533H801.067ZM800.222 567.467V648.533H801.911V567.467H800.222ZM801.067 647.689H720V649.378H801.067V647.689Z" fill="#FDF6D3" mask="url(#path-243-inside-121_3461_37220)"/>
<mask id="path-245-inside-122_3461_37220" fill="white">
<path d="M801.067 567.467H882.133V648.533H801.067V567.467Z"/>
</mask>
<path d="M882.133 648.533V649.378H882.978V648.533H882.133ZM881.289 567.467V648.533H882.978V567.467H881.289ZM882.133 647.689H801.067V649.378H882.133V647.689Z" fill="#FDF6D3" mask="url(#path-245-inside-122_3461_37220)"/>
<mask id="path-247-inside-123_3461_37220" fill="white">
<path d="M882.133 567.467H963.2V648.533H882.133V567.467Z"/>
</mask>
<path d="M963.2 648.533V649.378H964.044V648.533H963.2ZM962.356 567.467V648.533H964.044V567.467H962.356ZM963.2 647.689H882.133V649.378H963.2V647.689Z" fill="#FDF6D3" mask="url(#path-247-inside-123_3461_37220)"/>
<mask id="path-249-inside-124_3461_37220" fill="white">
<path d="M963.2 567.467H1044.27V648.533H963.2V567.467Z"/>
</mask>
<path d="M1044.27 648.533V649.378H1045.11V648.533H1044.27ZM1043.42 567.467V648.533H1045.11V567.467H1043.42ZM1044.27 647.689H963.2V649.378H1044.27V647.689Z" fill="#FDF6D3" mask="url(#path-249-inside-124_3461_37220)"/>
<mask id="path-251-inside-125_3461_37220" fill="white">
<path d="M1044.27 567.467H1125.33V648.533H1044.27V567.467Z"/>
</mask>
<path d="M1044.27 567.467H1125.33V648.533H1044.27V567.467Z" fill="#FEFBE9"/>
<path d="M1125.33 648.533V649.378H1126.18V648.533H1125.33ZM1124.49 567.467V648.533H1126.18V567.467H1124.49ZM1125.33 647.689H1044.27V649.378H1125.33V647.689Z" fill="#FDF6D3" mask="url(#path-251-inside-125_3461_37220)"/>
<mask id="path-253-inside-126_3461_37220" fill="white">
<path d="M1125.33 567.467H1206.4V648.533H1125.33V567.467Z"/>
</mask>
<path d="M1206.4 648.533V649.378H1207.24V648.533H1206.4ZM1205.56 567.467V648.533H1207.24V567.467H1205.56ZM1206.4 647.689H1125.33V649.378H1206.4V647.689Z" fill="#FDF6D3" mask="url(#path-253-inside-126_3461_37220)"/>
<mask id="path-255-inside-127_3461_37220" fill="white">
<path d="M1206.4 567.467H1287.47V648.533H1206.4V567.467Z"/>
</mask>
<path d="M1287.47 648.533V649.378H1288.31V648.533H1287.47ZM1286.62 567.467V648.533H1288.31V567.467H1286.62ZM1287.47 647.689H1206.4V649.378H1287.47V647.689Z" fill="#FDF6D3" mask="url(#path-255-inside-127_3461_37220)"/>
<mask id="path-257-inside-128_3461_37220" fill="white">
<path d="M1287.47 567.467H1368.53V648.533H1287.47V567.467Z"/>
</mask>
<path d="M1368.53 648.533V649.378H1369.38V648.533H1368.53ZM1367.69 567.467V648.533H1369.38V567.467H1367.69ZM1368.53 647.689H1287.47V649.378H1368.53V647.689Z" fill="#FDF6D3" mask="url(#path-257-inside-128_3461_37220)"/>
<mask id="path-259-inside-129_3461_37220" fill="white">
<path d="M71.4667 648.533H152.533V729.6H71.4667V648.533Z"/>
</mask>
<path d="M152.533 729.6V730.444H153.378V729.6H152.533ZM151.689 648.533V729.6H153.378V648.533H151.689ZM152.533 728.755H71.4667V730.444H152.533V728.755Z" fill="#FDF6D3" mask="url(#path-259-inside-129_3461_37220)"/>
<mask id="path-261-inside-130_3461_37220" fill="white">
<path d="M152.533 648.533H233.6V729.6H152.533V648.533Z"/>
</mask>
<path d="M233.6 729.6V730.444H234.444V729.6H233.6ZM232.756 648.533V729.6H234.444V648.533H232.756ZM233.6 728.755H152.533V730.444H233.6V728.755Z" fill="#FDF6D3" mask="url(#path-261-inside-130_3461_37220)"/>
<mask id="path-263-inside-131_3461_37220" fill="white">
<path d="M233.6 648.533H314.667V729.6H233.6V648.533Z"/>
</mask>
<path d="M314.667 729.6V730.444H315.511V729.6H314.667ZM313.822 648.533V729.6H315.511V648.533H313.822ZM314.667 728.755H233.6V730.444H314.667V728.755Z" fill="#FDF6D3" mask="url(#path-263-inside-131_3461_37220)"/>
<mask id="path-265-inside-132_3461_37220" fill="white">
<path d="M314.667 648.533H395.733V729.6H314.667V648.533Z"/>
</mask>
<path d="M314.667 648.533H395.733V729.6H314.667V648.533Z" fill="#FEFBE9"/>
<path d="M395.733 729.6V730.444H396.578V729.6H395.733ZM394.889 648.533V729.6H396.578V648.533H394.889ZM395.733 728.755H314.667V730.444H395.733V728.755Z" fill="#FDF6D3" mask="url(#path-265-inside-132_3461_37220)"/>
<mask id="path-267-inside-133_3461_37220" fill="white">
<path d="M395.733 648.533H476.8V729.6H395.733V648.533Z"/>
</mask>
<path d="M476.8 729.6V730.444H477.644V729.6H476.8ZM475.956 648.533V729.6H477.644V648.533H475.956ZM476.8 728.755H395.733V730.444H476.8V728.755Z" fill="#FDF6D3" mask="url(#path-267-inside-133_3461_37220)"/>
<mask id="path-269-inside-134_3461_37220" fill="white">
<path d="M476.8 648.533H557.867V729.6H476.8V648.533Z"/>
</mask>
<path d="M557.867 729.6V730.444H558.711V729.6H557.867ZM557.022 648.533V729.6H558.711V648.533H557.022ZM557.867 728.755H476.8V730.444H557.867V728.755Z" fill="#FDF6D3" mask="url(#path-269-inside-134_3461_37220)"/>
<mask id="path-271-inside-135_3461_37220" fill="white">
<path d="M557.867 648.533H638.933V729.6H557.867V648.533Z"/>
</mask>
<path d="M638.933 729.6V730.444H639.778V729.6H638.933ZM638.089 648.533V729.6H639.778V648.533H638.089ZM638.933 728.755H557.867V730.444H638.933V728.755Z" fill="#FDF6D3" mask="url(#path-271-inside-135_3461_37220)"/>
<mask id="path-273-inside-136_3461_37220" fill="white">
<path d="M638.933 648.533H720V729.6H638.933V648.533Z"/>
</mask>
<path d="M720 729.6V730.444H720.844V729.6H720ZM719.156 648.533V729.6H720.844V648.533H719.156ZM720 728.755H638.933V730.444H720V728.755Z" fill="#FDF6D3" mask="url(#path-273-inside-136_3461_37220)"/>
<mask id="path-275-inside-137_3461_37220" fill="white">
<path d="M720 648.533H801.067V729.6H720V648.533Z"/>
</mask>
<path d="M801.067 729.6V730.444H801.911V729.6H801.067ZM800.222 648.533V729.6H801.911V648.533H800.222ZM801.067 728.755H720V730.444H801.067V728.755Z" fill="#FDF6D3" mask="url(#path-275-inside-137_3461_37220)"/>
<mask id="path-277-inside-138_3461_37220" fill="white">
<path d="M801.067 648.533H882.133V729.6H801.067V648.533Z"/>
</mask>
<path d="M801.067 648.533H882.133V729.6H801.067V648.533Z" fill="#FEFBE9"/>
<path d="M882.133 729.6V730.444H882.978V729.6H882.133ZM881.289 648.533V729.6H882.978V648.533H881.289ZM882.133 728.755H801.067V730.444H882.133V728.755Z" fill="#FDF6D3" mask="url(#path-277-inside-138_3461_37220)"/>
<mask id="path-279-inside-139_3461_37220" fill="white">
<path d="M882.133 648.533H963.2V729.6H882.133V648.533Z"/>
</mask>
<path d="M963.2 729.6V730.444H964.044V729.6H963.2ZM962.356 648.533V729.6H964.044V648.533H962.356ZM963.2 728.755H882.133V730.444H963.2V728.755Z" fill="#FDF6D3" mask="url(#path-279-inside-139_3461_37220)"/>
<mask id="path-281-inside-140_3461_37220" fill="white">
<path d="M963.2 648.533H1044.27V729.6H963.2V648.533Z"/>
</mask>
<path d="M1044.27 729.6V730.444H1045.11V729.6H1044.27ZM1043.42 648.533V729.6H1045.11V648.533H1043.42ZM1044.27 728.755H963.2V730.444H1044.27V728.755Z" fill="#FDF6D3" mask="url(#path-281-inside-140_3461_37220)"/>
<mask id="path-283-inside-141_3461_37220" fill="white">
<path d="M1044.27 648.533H1125.33V729.6H1044.27V648.533Z"/>
</mask>
<path d="M1125.33 729.6V730.444H1126.18V729.6H1125.33ZM1124.49 648.533V729.6H1126.18V648.533H1124.49ZM1125.33 728.755H1044.27V730.444H1125.33V728.755Z" fill="#FDF6D3" mask="url(#path-283-inside-141_3461_37220)"/>
<mask id="path-285-inside-142_3461_37220" fill="white">
<path d="M1125.33 648.533H1206.4V729.6H1125.33V648.533Z"/>
</mask>
<path d="M1206.4 729.6V730.444H1207.24V729.6H1206.4ZM1205.56 648.533V729.6H1207.24V648.533H1205.56ZM1206.4 728.755H1125.33V730.444H1206.4V728.755Z" fill="#FDF6D3" mask="url(#path-285-inside-142_3461_37220)"/>
<mask id="path-287-inside-143_3461_37220" fill="white">
<path d="M1206.4 648.533H1287.47V729.6H1206.4V648.533Z"/>
</mask>
<path d="M1287.47 729.6V730.444H1288.31V729.6H1287.47ZM1286.62 648.533V729.6H1288.31V648.533H1286.62ZM1287.47 728.755H1206.4V730.444H1287.47V728.755Z" fill="#FDF6D3" mask="url(#path-287-inside-143_3461_37220)"/>
<mask id="path-289-inside-144_3461_37220" fill="white">
<path d="M1287.47 648.533H1368.53V729.6H1287.47V648.533Z"/>
</mask>
<path d="M1368.53 729.6V730.444H1369.38V729.6H1368.53ZM1367.69 648.533V729.6H1369.38V648.533H1367.69ZM1368.53 728.755H1287.47V730.444H1368.53V728.755Z" fill="#FDF6D3" mask="url(#path-289-inside-144_3461_37220)"/>
<mask id="path-291-inside-145_3461_37220" fill="white">
<path d="M71.4667 729.6H152.533V810.666H71.4667V729.6Z"/>
</mask>
<path d="M152.533 810.666V811.511H153.378V810.666H152.533ZM151.689 729.6V810.666H153.378V729.6H151.689ZM152.533 809.822H71.4667V811.511H152.533V809.822Z" fill="#FDF6D3" mask="url(#path-291-inside-145_3461_37220)"/>
<mask id="path-293-inside-146_3461_37220" fill="white">
<path d="M152.533 729.6H233.6V810.666H152.533V729.6Z"/>
</mask>
<path d="M233.6 810.666V811.511H234.444V810.666H233.6ZM232.756 729.6V810.666H234.444V729.6H232.756ZM233.6 809.822H152.533V811.511H233.6V809.822Z" fill="#FDF6D3" mask="url(#path-293-inside-146_3461_37220)"/>
<mask id="path-295-inside-147_3461_37220" fill="white">
<path d="M233.6 729.6H314.667V810.666H233.6V729.6Z"/>
</mask>
<path d="M314.667 810.666V811.511H315.511V810.666H314.667ZM313.822 729.6V810.666H315.511V729.6H313.822ZM314.667 809.822H233.6V811.511H314.667V809.822Z" fill="#FDF6D3" mask="url(#path-295-inside-147_3461_37220)"/>
<mask id="path-297-inside-148_3461_37220" fill="white">
<path d="M314.667 729.6H395.733V810.666H314.667V729.6Z"/>
</mask>
<path d="M395.733 810.666V811.511H396.578V810.666H395.733ZM394.889 729.6V810.666H396.578V729.6H394.889ZM395.733 809.822H314.667V811.511H395.733V809.822Z" fill="#FDF6D3" mask="url(#path-297-inside-148_3461_37220)"/>
<mask id="path-299-inside-149_3461_37220" fill="white">
<path d="M395.733 729.6H476.8V810.666H395.733V729.6Z"/>
</mask>
<path d="M476.8 810.666V811.511H477.644V810.666H476.8ZM475.956 729.6V810.666H477.644V729.6H475.956ZM476.8 809.822H395.733V811.511H476.8V809.822Z" fill="#FDF6D3" mask="url(#path-299-inside-149_3461_37220)"/>
<mask id="path-301-inside-150_3461_37220" fill="white">
<path d="M476.8 729.6H557.867V810.666H476.8V729.6Z"/>
</mask>
<path d="M557.867 810.666V811.511H558.711V810.666H557.867ZM557.022 729.6V810.666H558.711V729.6H557.022ZM557.867 809.822H476.8V811.511H557.867V809.822Z" fill="#FDF6D3" mask="url(#path-301-inside-150_3461_37220)"/>
<mask id="path-303-inside-151_3461_37220" fill="white">
<path d="M557.867 729.6H638.933V810.666H557.867V729.6Z"/>
</mask>
<path d="M638.933 810.666V811.511H639.778V810.666H638.933ZM638.089 729.6V810.666H639.778V729.6H638.089ZM638.933 809.822H557.867V811.511H638.933V809.822Z" fill="#FDF6D3" mask="url(#path-303-inside-151_3461_37220)"/>
<mask id="path-305-inside-152_3461_37220" fill="white">
<path d="M638.933 729.6H720V810.666H638.933V729.6Z"/>
</mask>
<path d="M720 810.666V811.511H720.844V810.666H720ZM719.156 729.6V810.666H720.844V729.6H719.156ZM720 809.822H638.933V811.511H720V809.822Z" fill="#FDF6D3" mask="url(#path-305-inside-152_3461_37220)"/>
<mask id="path-307-inside-153_3461_37220" fill="white">
<path d="M720 729.6H801.067V810.666H720V729.6Z"/>
</mask>
<path d="M801.067 810.666V811.511H801.911V810.666H801.067ZM800.222 729.6V810.666H801.911V729.6H800.222ZM801.067 809.822H720V811.511H801.067V809.822Z" fill="#FDF6D3" mask="url(#path-307-inside-153_3461_37220)"/>
<mask id="path-309-inside-154_3461_37220" fill="white">
<path d="M801.067 729.6H882.133V810.666H801.067V729.6Z"/>
</mask>
<path d="M882.133 810.666V811.511H882.978V810.666H882.133ZM881.289 729.6V810.666H882.978V729.6H881.289ZM882.133 809.822H801.067V811.511H882.133V809.822Z" fill="#FDF6D3" mask="url(#path-309-inside-154_3461_37220)"/>
<mask id="path-311-inside-155_3461_37220" fill="white">
<path d="M882.133 729.6H963.2V810.666H882.133V729.6Z"/>
</mask>
<path d="M963.2 810.666V811.511H964.044V810.666H963.2ZM962.356 729.6V810.666H964.044V729.6H962.356ZM963.2 809.822H882.133V811.511H963.2V809.822Z" fill="#FDF6D3" mask="url(#path-311-inside-155_3461_37220)"/>
<mask id="path-313-inside-156_3461_37220" fill="white">
<path d="M963.2 729.6H1044.27V810.666H963.2V729.6Z"/>
</mask>
<path d="M1044.27 810.666V811.511H1045.11V810.666H1044.27ZM1043.42 729.6V810.666H1045.11V729.6H1043.42ZM1044.27 809.822H963.2V811.511H1044.27V809.822Z" fill="#FDF6D3" mask="url(#path-313-inside-156_3461_37220)"/>
<mask id="path-315-inside-157_3461_37220" fill="white">
<path d="M1044.27 729.6H1125.33V810.666H1044.27V729.6Z"/>
</mask>
<path d="M1125.33 810.666V811.511H1126.18V810.666H1125.33ZM1124.49 729.6V810.666H1126.18V729.6H1124.49ZM1125.33 809.822H1044.27V811.511H1125.33V809.822Z" fill="#FDF6D3" mask="url(#path-315-inside-157_3461_37220)"/>
<mask id="path-317-inside-158_3461_37220" fill="white">
<path d="M1125.33 729.6H1206.4V810.666H1125.33V729.6Z"/>
</mask>
<path d="M1206.4 810.666V811.511H1207.24V810.666H1206.4ZM1205.56 729.6V810.666H1207.24V729.6H1205.56ZM1206.4 809.822H1125.33V811.511H1206.4V809.822Z" fill="#FDF6D3" mask="url(#path-317-inside-158_3461_37220)"/>
<mask id="path-319-inside-159_3461_37220" fill="white">
<path d="M1206.4 729.6H1287.47V810.666H1206.4V729.6Z"/>
</mask>
<path d="M1287.47 810.666V811.511H1288.31V810.666H1287.47ZM1286.62 729.6V810.666H1288.31V729.6H1286.62ZM1287.47 809.822H1206.4V811.511H1287.47V809.822Z" fill="#FDF6D3" mask="url(#path-319-inside-159_3461_37220)"/>
<mask id="path-321-inside-160_3461_37220" fill="white">
<path d="M1287.47 729.6H1368.53V810.666H1287.47V729.6Z"/>
</mask>
<path d="M1287.47 729.6H1368.53V810.666H1287.47V729.6Z" fill="#FEFBE9"/>
<path d="M1368.53 810.666V811.511H1369.38V810.666H1368.53ZM1367.69 729.6V810.666H1369.38V729.6H1367.69ZM1368.53 809.822H1287.47V811.511H1368.53V809.822Z" fill="#FDF6D3" mask="url(#path-321-inside-160_3461_37220)"/>
<mask id="path-323-inside-161_3461_37220" fill="white">
<path d="M71.4667 810.666H152.533V891.733H71.4667V810.666Z"/>
</mask>
<path d="M152.533 891.733V892.577H153.378V891.733H152.533ZM151.689 810.666V891.733H153.378V810.666H151.689ZM152.533 890.888H71.4667V892.577H152.533V890.888Z" fill="#FDF6D3" mask="url(#path-323-inside-161_3461_37220)"/>
<mask id="path-325-inside-162_3461_37220" fill="white">
<path d="M152.533 810.666H233.6V891.733H152.533V810.666Z"/>
</mask>
<path d="M233.6 891.733V892.577H234.444V891.733H233.6ZM232.756 810.666V891.733H234.444V810.666H232.756ZM233.6 890.888H152.533V892.577H233.6V890.888Z" fill="#FDF6D3" mask="url(#path-325-inside-162_3461_37220)"/>
<mask id="path-327-inside-163_3461_37220" fill="white">
<path d="M233.6 810.666H314.667V891.733H233.6V810.666Z"/>
</mask>
<path d="M314.667 891.733V892.577H315.511V891.733H314.667ZM313.822 810.666V891.733H315.511V810.666H313.822ZM314.667 890.888H233.6V892.577H314.667V890.888Z" fill="#FDF6D3" mask="url(#path-327-inside-163_3461_37220)"/>
<mask id="path-329-inside-164_3461_37220" fill="white">
<path d="M314.667 810.666H395.733V891.733H314.667V810.666Z"/>
</mask>
<path d="M395.733 891.733V892.577H396.578V891.733H395.733ZM394.889 810.666V891.733H396.578V810.666H394.889ZM395.733 890.888H314.667V892.577H395.733V890.888Z" fill="#FDF6D3" mask="url(#path-329-inside-164_3461_37220)"/>
<mask id="path-331-inside-165_3461_37220" fill="white">
<path d="M395.733 810.666H476.8V891.733H395.733V810.666Z"/>
</mask>
<path d="M395.733 810.666H476.8V891.733H395.733V810.666Z" fill="#FEFBE9"/>
<path d="M476.8 891.733V892.577H477.644V891.733H476.8ZM475.956 810.666V891.733H477.644V810.666H475.956ZM476.8 890.888H395.733V892.577H476.8V890.888Z" fill="#FDF6D3" mask="url(#path-331-inside-165_3461_37220)"/>
<mask id="path-333-inside-166_3461_37220" fill="white">
<path d="M476.8 810.666H557.867V891.733H476.8V810.666Z"/>
</mask>
<path d="M557.867 891.733V892.577H558.711V891.733H557.867ZM557.022 810.666V891.733H558.711V810.666H557.022ZM557.867 890.888H476.8V892.577H557.867V890.888Z" fill="#FDF6D3" mask="url(#path-333-inside-166_3461_37220)"/>
<mask id="path-335-inside-167_3461_37220" fill="white">
<path d="M557.867 810.666H638.933V891.733H557.867V810.666Z"/>
</mask>
<path d="M638.933 891.733V892.577H639.778V891.733H638.933ZM638.089 810.666V891.733H639.778V810.666H638.089ZM638.933 890.888H557.867V892.577H638.933V890.888Z" fill="#FDF6D3" mask="url(#path-335-inside-167_3461_37220)"/>
<mask id="path-337-inside-168_3461_37220" fill="white">
<path d="M638.933 810.666H720V891.733H638.933V810.666Z"/>
</mask>
<path d="M720 891.733V892.577H720.844V891.733H720ZM719.156 810.666V891.733H720.844V810.666H719.156ZM720 890.888H638.933V892.577H720V890.888Z" fill="#FDF6D3" mask="url(#path-337-inside-168_3461_37220)"/>
<mask id="path-339-inside-169_3461_37220" fill="white">
<path d="M720 810.666H801.067V891.733H720V810.666Z"/>
</mask>
<path d="M720 810.666H801.067V891.733H720V810.666Z" fill="#FEFBE9"/>
<path d="M801.067 891.733V892.577H801.911V891.733H801.067ZM800.222 810.666V891.733H801.911V810.666H800.222ZM801.067 890.888H720V892.577H801.067V890.888Z" fill="#FDF6D3" mask="url(#path-339-inside-169_3461_37220)"/>
<mask id="path-341-inside-170_3461_37220" fill="white">
<path d="M801.067 810.666H882.133V891.733H801.067V810.666Z"/>
</mask>
<path d="M882.133 891.733V892.577H882.978V891.733H882.133ZM881.289 810.666V891.733H882.978V810.666H881.289ZM882.133 890.888H801.067V892.577H882.133V890.888Z" fill="#FDF6D3" mask="url(#path-341-inside-170_3461_37220)"/>
<mask id="path-343-inside-171_3461_37220" fill="white">
<path d="M882.133 810.666H963.2V891.733H882.133V810.666Z"/>
</mask>
<path d="M963.2 891.733V892.577H964.044V891.733H963.2ZM962.356 810.666V891.733H964.044V810.666H962.356ZM963.2 890.888H882.133V892.577H963.2V890.888Z" fill="#FDF6D3" mask="url(#path-343-inside-171_3461_37220)"/>
<mask id="path-345-inside-172_3461_37220" fill="white">
<path d="M963.2 810.666H1044.27V891.733H963.2V810.666Z"/>
</mask>
<path d="M1044.27 891.733V892.577H1045.11V891.733H1044.27ZM1043.42 810.666V891.733H1045.11V810.666H1043.42ZM1044.27 890.888H963.2V892.577H1044.27V890.888Z" fill="#FDF6D3" mask="url(#path-345-inside-172_3461_37220)"/>
<mask id="path-347-inside-173_3461_37220" fill="white">
<path d="M1044.27 810.666H1125.33V891.733H1044.27V810.666Z"/>
</mask>
<path d="M1125.33 891.733V892.577H1126.18V891.733H1125.33ZM1124.49 810.666V891.733H1126.18V810.666H1124.49ZM1125.33 890.888H1044.27V892.577H1125.33V890.888Z" fill="#FDF6D3" mask="url(#path-347-inside-173_3461_37220)"/>
<mask id="path-349-inside-174_3461_37220" fill="white">
<path d="M1125.33 810.666H1206.4V891.733H1125.33V810.666Z"/>
</mask>
<path d="M1206.4 891.733V892.577H1207.24V891.733H1206.4ZM1205.56 810.666V891.733H1207.24V810.666H1205.56ZM1206.4 890.888H1125.33V892.577H1206.4V890.888Z" fill="#FDF6D3" mask="url(#path-349-inside-174_3461_37220)"/>
<mask id="path-351-inside-175_3461_37220" fill="white">
<path d="M1206.4 810.666H1287.47V891.733H1206.4V810.666Z"/>
</mask>
<path d="M1287.47 891.733V892.577H1288.31V891.733H1287.47ZM1286.62 810.666V891.733H1288.31V810.666H1286.62ZM1287.47 890.888H1206.4V892.577H1287.47V890.888Z" fill="#FDF6D3" mask="url(#path-351-inside-175_3461_37220)"/>
<mask id="path-353-inside-176_3461_37220" fill="white">
<path d="M1287.47 810.666H1368.53V891.733H1287.47V810.666Z"/>
</mask>
<path d="M1368.53 891.733V892.577H1369.38V891.733H1368.53ZM1367.69 810.666V891.733H1369.38V810.666H1367.69ZM1368.53 890.888H1287.47V892.577H1368.53V890.888Z" fill="#FDF6D3" mask="url(#path-353-inside-176_3461_37220)"/>
</g>
<rect x="-90.2444" y="0.422222" width="1620.49" height="1215.16" stroke="#FDF6D3" stroke-width="0.844444"/>
</g>
<defs>
<radialGradient id="paint0_radial_3461_37220" cx="0" cy="0" r="1" gradientUnits="userSpaceOnUse" gradientTransform="translate(608 -0.000144958) rotate(90) scale(1216 634.674)">
<stop/>
<stop offset="0.953125" stop-opacity="0"/>
</radialGradient>
<clipPath id="clip0_3461_37220">
<rect x="-90.6666" width="1621.33" height="1216" fill="white"/>
</clipPath>
</defs>
</svg>
