<svg width="328" height="240" viewBox="0 0 328 240" fill="none" xmlns="http://www.w3.org/2000/svg">
<ellipse cx="164.001" cy="120" rx="118.691" ry="120" fill="#F8E166"/>
<ellipse cx="42.989" cy="33.0108" rx="8.88163" ry="8.97959" fill="#FDF6D3"/>
<ellipse cx="289.009" cy="186.193" rx="8.90181" ry="9" fill="#FDF6D3"/>
<circle cx="25" cy="182" r="13" fill="#FBEEA9"/>
<ellipse cx="312.364" cy="64.5117" rx="14.8364" ry="15" fill="#FBEEA9"/>
<ellipse cx="274.739" cy="22.1113" rx="10.3854" ry="10.5" fill="#FBEEA9"/>
<g filter="url(#filter0_d_7067_62181)">
<path d="M134.195 46.3432C133.573 44.8037 133.589 43.0803 134.238 41.5522C134.887 40.024 136.116 38.8163 137.656 38.1947C139.195 37.5731 140.919 37.5886 142.447 38.2376C143.975 38.8867 145.183 40.1162 145.804 41.6557L152.054 57.2807C152.362 58.043 152.517 58.8584 152.509 59.6804C152.502 60.5025 152.333 61.315 152.011 62.0717C151.69 62.8283 151.223 63.5143 150.636 64.0903C150.05 64.6664 149.356 65.1213 148.593 65.4291C147.831 65.7369 147.016 65.8915 146.193 65.8842C145.371 65.8768 144.559 65.7076 143.802 65.3862C143.046 65.0649 142.36 64.5976 141.784 64.0111C141.208 63.4247 140.753 62.7305 140.445 61.9682L134.195 46.3432ZM87.6558 99.8041L103.281 106.054C104.043 106.362 104.858 106.517 105.681 106.509C106.503 106.502 107.315 106.333 108.072 106.011C108.828 105.69 109.514 105.223 110.09 104.636C110.667 104.05 111.121 103.355 111.429 102.593C111.737 101.831 111.892 101.015 111.884 100.193C111.877 99.3714 111.708 98.5588 111.386 97.8022C111.065 97.0455 110.598 96.3596 110.011 95.7835C109.425 95.2074 108.731 94.7525 107.968 94.4447L92.3433 88.1947C90.8038 87.5731 89.0804 87.5886 87.5523 88.2376C86.0241 88.8867 84.8164 90.1162 84.1948 91.6557C83.5732 93.1952 83.5886 94.9185 84.2377 96.4467C84.8868 97.9748 86.1163 99.1825 87.6558 99.8041ZM242.343 138.195L226.718 131.945C225.179 131.323 223.455 131.339 221.927 131.988C220.399 132.637 219.191 133.866 218.57 135.406C217.948 136.945 217.964 138.669 218.613 140.197C219.262 141.725 220.491 142.933 222.031 143.554L237.656 149.804C239.195 150.426 240.919 150.41 242.447 149.761C243.975 149.112 245.183 147.883 245.804 146.343C246.426 144.804 246.41 143.08 245.761 141.552C245.112 140.024 243.883 138.816 242.343 138.195ZM189.554 176.031C188.933 174.491 187.725 173.262 186.197 172.613C184.669 171.964 182.945 171.948 181.406 172.57C179.866 173.191 178.637 174.399 177.988 175.927C177.339 177.455 177.323 179.179 177.945 180.718L184.195 196.343C184.816 197.883 186.024 199.112 187.552 199.761C189.08 200.41 190.804 200.426 192.343 199.804C193.883 199.183 195.112 197.975 195.761 196.447C196.41 194.919 196.426 193.195 195.804 191.656L189.554 176.031ZM250.867 33.4682C250.293 32.8565 249.603 32.3664 248.836 32.027C248.07 31.6877 247.243 31.5061 246.404 31.493C245.566 31.4798 244.734 31.6355 243.957 31.9507C243.18 32.2658 242.474 32.7341 241.882 33.3275L200.937 74.2729L196.734 70.0697C194.412 67.7453 191.655 65.9013 188.62 64.6432C185.585 63.3851 182.332 62.7376 179.046 62.7376C175.761 62.7376 172.508 63.3851 169.473 64.6432C166.438 65.9013 163.681 67.7453 161.359 70.0697L147.921 83.4838C147.631 83.774 147.4 84.1187 147.243 84.4981C147.086 84.8774 147.005 85.2841 147.005 85.6947C147.005 86.1054 147.086 86.5121 147.243 86.8914C147.4 87.2708 147.631 87.6154 147.921 87.9057L196.125 136.078C196.415 136.368 196.759 136.599 197.139 136.756C197.518 136.913 197.925 136.994 198.335 136.994C198.746 136.994 199.153 136.913 199.532 136.756C199.912 136.599 200.256 136.368 200.546 136.078L213.625 122.999C218.364 118.351 221.112 112.042 221.289 105.406C221.353 102.051 220.738 98.7171 219.48 95.6061C218.222 92.4951 216.347 89.6711 213.968 87.3041L209.765 83.1088L250.546 42.351C251.735 41.1974 252.432 39.6292 252.492 37.9739C252.551 36.3187 251.969 34.7043 250.867 33.4682ZM131.906 89.5775C131.314 88.9853 130.609 88.5181 129.833 88.2036C129.056 87.8892 128.225 87.7339 127.388 87.747C126.55 87.7601 125.724 87.9414 124.958 88.28C124.192 88.6186 123.502 89.1077 122.929 89.7182C121.827 90.9543 121.245 92.5687 121.304 94.2239C121.364 95.8792 122.061 97.4474 123.25 98.601L128.023 103.374L116.046 115.335C113.673 117.703 111.803 120.527 110.549 123.637C109.295 126.746 108.683 130.077 108.75 133.429C108.914 140.064 111.651 146.376 116.382 151.031L120.289 154.89L79.4448 195.663C78.2924 196.786 77.6038 198.3 77.5155 199.906C77.4273 201.513 77.9458 203.093 78.9683 204.335C79.5298 204.987 80.2197 205.515 80.9948 205.888C81.77 206.26 82.6137 206.469 83.4731 206.501C84.3326 206.532 85.1893 206.386 85.9896 206.071C86.79 205.756 87.5168 205.28 88.1245 204.671L129.062 163.726L133.257 167.929C137.957 172.607 144.318 175.233 150.949 175.233C157.58 175.233 163.94 172.607 168.64 167.929L180.625 155.96L185.578 160.921C186.158 161.502 186.848 161.963 187.606 162.277C188.365 162.591 189.178 162.753 190 162.753C190.821 162.753 191.634 162.591 192.393 162.277C193.151 161.963 193.841 161.502 194.421 160.921C195.002 160.341 195.463 159.651 195.777 158.893C196.091 158.134 196.253 157.321 196.253 156.499C196.253 155.678 196.091 154.865 195.777 154.106C195.463 153.348 195.002 152.658 194.421 152.078L131.906 89.5775Z" fill="white"/>
</g>
<path d="M205 192.77C205 169.701 223.701 151 246.77 151C269.839 151 288.541 169.701 288.541 192.77C288.541 215.839 269.839 234.541 246.77 234.541C223.701 234.541 205 215.839 205 192.77Z" fill="#FFD000" fill-opacity="0.6"/>
<path d="M251.469 182.85C251.15 183.175 250.971 183.612 250.971 184.068C250.971 184.523 251.15 184.961 251.469 185.286L254.253 188.071C254.579 188.39 255.016 188.568 255.472 188.568C255.927 188.568 256.365 188.39 256.69 188.071L263.252 181.509C264.127 183.443 264.392 185.598 264.011 187.686C263.631 189.775 262.623 191.698 261.122 193.199C259.621 194.7 257.698 195.708 255.61 196.088C253.521 196.469 251.366 196.204 249.433 195.328L237.406 207.355C236.714 208.047 235.775 208.436 234.796 208.436C233.816 208.436 232.877 208.047 232.185 207.355C231.492 206.662 231.104 205.723 231.104 204.744C231.104 203.765 231.492 202.826 232.185 202.133L244.211 190.107C243.336 188.173 243.071 186.018 243.452 183.93C243.832 181.842 244.84 179.919 246.341 178.418C247.842 176.917 249.765 175.909 251.853 175.529C253.942 175.148 256.096 175.413 258.03 176.288L251.486 182.832L251.469 182.85Z" stroke="white" stroke-width="2.98359" stroke-linecap="round" stroke-linejoin="round"/>
<defs>
<filter id="filter0_d_7067_62181" x="73.5059" y="31.4922" width="182.99" height="183.012" filterUnits="userSpaceOnUse" color-interpolation-filters="sRGB">
<feFlood flood-opacity="0" result="BackgroundImageFix"/>
<feColorMatrix in="SourceAlpha" type="matrix" values="0 0 0 0 0 0 0 0 0 0 0 0 0 0 0 0 0 0 127 0" result="hardAlpha"/>
<feOffset dy="4"/>
<feGaussianBlur stdDeviation="2"/>
<feComposite in2="hardAlpha" operator="out"/>
<feColorMatrix type="matrix" values="0 0 0 0 0.996078 0 0 0 0 0.647059 0 0 0 0 0 0 0 0 0.2 0"/>
<feBlend mode="normal" in2="BackgroundImageFix" result="effect1_dropShadow_7067_62181"/>
<feBlend mode="normal" in="SourceGraphic" in2="effect1_dropShadow_7067_62181" result="shape"/>
</filter>
</defs>
</svg>
