<svg width="328" height="240" viewBox="0 0 328 240" fill="none" xmlns="http://www.w3.org/2000/svg">
<ellipse cx="163.999" cy="120" rx="118.691" ry="120" fill="#F8E166"/>
<ellipse cx="42.9871" cy="33.0108" rx="8.88163" ry="8.97959" fill="#FDF6D3"/>
<ellipse cx="289.008" cy="186.193" rx="8.90181" ry="9" fill="#FDF6D3"/>
<circle cx="25" cy="182" r="13" fill="#FBEEA9"/>
<ellipse cx="312.363" cy="64.5117" rx="14.8364" ry="15" fill="#FBEEA9"/>
<ellipse cx="274.737" cy="22.1113" rx="10.3854" ry="10.5" fill="#FBEEA9"/>
<g filter="url(#filter0_d_7067_61704)">
<path d="M239.625 50.375H170.875V36.625C170.875 34.8016 170.151 33.053 168.861 31.7636C167.572 30.4743 165.823 29.75 164 29.75C162.177 29.75 160.428 30.4743 159.139 31.7636C157.849 33.053 157.125 34.8016 157.125 36.625V50.375H88.375C84.7283 50.375 81.2309 51.8237 78.6523 54.4023C76.0737 56.9809 74.625 60.4783 74.625 64.125V167.25C74.625 170.897 76.0737 174.394 78.6523 176.973C81.2309 179.551 84.7283 181 88.375 181H122.2L103.629 204.203C102.489 205.628 101.962 207.446 102.164 209.26C102.365 211.073 103.279 212.731 104.703 213.871C106.128 215.011 107.946 215.538 109.76 215.336C111.573 215.135 113.231 214.221 114.371 212.797L139.8 181H188.2L213.629 212.797C214.193 213.502 214.891 214.09 215.682 214.525C216.473 214.961 217.343 215.237 218.24 215.336C219.138 215.436 220.047 215.358 220.914 215.107C221.782 214.855 222.592 214.435 223.297 213.871C224.002 213.307 224.59 212.609 225.025 211.818C225.461 211.027 225.737 210.157 225.836 209.26C225.936 208.362 225.858 207.453 225.607 206.586C225.355 205.718 224.935 204.908 224.371 204.203L205.8 181H239.625C243.272 181 246.769 179.551 249.348 176.973C251.926 174.394 253.375 170.897 253.375 167.25V64.125C253.375 60.4783 251.926 56.9809 249.348 54.4023C246.769 51.8237 243.272 50.375 239.625 50.375ZM143.375 139.75C143.375 141.573 142.651 143.322 141.361 144.611C140.072 145.901 138.323 146.625 136.5 146.625C134.677 146.625 132.928 145.901 131.639 144.611C130.349 143.322 129.625 141.573 129.625 139.75V119.125C129.625 117.302 130.349 115.553 131.639 114.264C132.928 112.974 134.677 112.25 136.5 112.25C138.323 112.25 140.072 112.974 141.361 114.264C142.651 115.553 143.375 117.302 143.375 119.125V139.75ZM170.875 139.75C170.875 141.573 170.151 143.322 168.861 144.611C167.572 145.901 165.823 146.625 164 146.625C162.177 146.625 160.428 145.901 159.139 144.611C157.849 143.322 157.125 141.573 157.125 139.75V105.375C157.125 103.552 157.849 101.803 159.139 100.514C160.428 99.2243 162.177 98.5 164 98.5C165.823 98.5 167.572 99.2243 168.861 100.514C170.151 101.803 170.875 103.552 170.875 105.375V139.75ZM198.375 139.75C198.375 141.573 197.651 143.322 196.361 144.611C195.072 145.901 193.323 146.625 191.5 146.625C189.677 146.625 187.928 145.901 186.639 144.611C185.349 143.322 184.625 141.573 184.625 139.75V91.625C184.625 89.8016 185.349 88.053 186.639 86.7636C187.928 85.4743 189.677 84.75 191.5 84.75C193.323 84.75 195.072 85.4743 196.361 86.7636C197.651 88.053 198.375 89.8016 198.375 91.625V139.75Z" fill="white"/>
</g>
<path d="M201 183.77C201 160.701 219.701 142 242.77 142C265.839 142 284.541 160.701 284.541 183.77C284.541 206.839 265.839 225.541 242.77 225.541C219.701 225.541 201 206.839 201 183.77Z" fill="#FFD000" fill-opacity="0.6"/>
<path d="M225.365 178.548V171.586C225.365 170.663 225.732 169.778 226.385 169.125C227.038 168.472 227.923 168.106 228.846 168.106H235.634C236.216 168.1 236.79 168.24 237.304 168.514C237.818 168.788 238.255 169.186 238.575 169.672L239.985 171.761C240.302 172.242 240.733 172.637 241.241 172.91C241.748 173.184 242.315 173.327 242.891 173.327H256.693C257.616 173.327 258.501 173.694 259.154 174.346C259.807 174.999 260.174 175.885 260.174 176.808V194.212C260.174 195.135 259.807 196.021 259.154 196.673C258.501 197.326 257.616 197.693 256.693 197.693H228.846C227.923 197.693 227.038 197.326 226.385 196.673C225.732 196.021 225.365 195.135 225.365 194.212V192.472M225.365 185.51H242.77M242.77 185.51L237.548 190.731M242.77 185.51L237.548 180.288" stroke="white" stroke-width="2.98359" stroke-linecap="round" stroke-linejoin="round"/>
<defs>
<filter id="filter0_d_7067_61704" x="70.625" y="29.75" width="186.75" height="193.629" filterUnits="userSpaceOnUse" color-interpolation-filters="sRGB">
<feFlood flood-opacity="0" result="BackgroundImageFix"/>
<feColorMatrix in="SourceAlpha" type="matrix" values="0 0 0 0 0 0 0 0 0 0 0 0 0 0 0 0 0 0 127 0" result="hardAlpha"/>
<feOffset dy="4"/>
<feGaussianBlur stdDeviation="2"/>
<feComposite in2="hardAlpha" operator="out"/>
<feColorMatrix type="matrix" values="0 0 0 0 0.996078 0 0 0 0 0.647059 0 0 0 0 0 0 0 0 0.2 0"/>
<feBlend mode="normal" in2="BackgroundImageFix" result="effect1_dropShadow_7067_61704"/>
<feBlend mode="normal" in="SourceGraphic" in2="effect1_dropShadow_7067_61704" result="shape"/>
</filter>
</defs>
</svg>
