<svg width="328" height="240" viewBox="0 0 328 240" fill="none" xmlns="http://www.w3.org/2000/svg">
<ellipse cx="164.001" cy="120" rx="118.691" ry="120" fill="#F8E166"/>
<ellipse cx="42.989" cy="33.0108" rx="8.88163" ry="8.97959" fill="#FDF6D3"/>
<ellipse cx="289.009" cy="186.193" rx="8.90181" ry="9" fill="#FDF6D3"/>
<circle cx="25" cy="182" r="13" fill="#FBEEA9"/>
<ellipse cx="312.364" cy="64.5117" rx="14.8364" ry="15" fill="#FBEEA9"/>
<ellipse cx="274.739" cy="22.1113" rx="10.3854" ry="10.5" fill="#FBEEA9"/>
<g filter="url(#filter0_d_7067_62300)">
<path d="M206.8 75.7031C205.122 72.7894 202.355 70.6617 199.108 69.7881C195.86 68.9145 192.399 69.3666 189.486 71.0449C186.572 72.7232 184.444 75.4903 183.571 78.7374C182.697 81.9845 183.149 85.4456 184.827 88.3594L167.77 58.8281C166.091 55.9172 163.325 53.7921 160.08 52.9205C156.835 52.0489 153.377 52.5021 150.466 54.1805C147.555 55.8588 145.43 58.6247 144.558 61.8699C143.686 65.115 144.14 68.5734 145.818 71.4844L141.782 64.4531C140.104 61.5422 137.338 59.4171 134.093 58.5455C130.848 57.6739 127.389 58.1271 124.478 59.8055C121.567 61.4838 119.442 64.2497 118.571 67.4949C117.699 70.74 118.152 74.1984 119.83 77.1094L122.179 81.1664C118.698 80.3029 115.04 80.4822 111.66 81.6821C108.281 82.8821 105.329 85.0496 103.172 87.9148C101.015 90.78 99.7483 94.2163 99.5298 97.796C99.3113 101.376 100.151 104.941 101.943 108.047L104.052 111.703C101.062 112.083 98.2123 113.195 95.7563 114.943C93.3003 116.69 91.3144 119.017 89.9753 121.717C88.6363 124.418 87.9857 127.407 88.0815 130.42C88.1773 133.432 89.0164 136.375 90.5243 138.984L115.323 181.875C121.514 192.584 131.056 200.958 142.478 205.706C153.899 210.454 166.566 211.312 178.524 208.148C190.481 204.983 201.065 197.972 208.643 188.196C216.221 178.419 220.372 166.421 220.455 154.052C225.468 146.236 228.232 137.19 228.444 127.907C228.656 118.623 226.308 109.461 221.657 101.423L206.8 75.7031ZM207.644 165.394C205.328 173.997 200.515 181.721 193.813 187.591C187.111 193.461 178.82 197.214 169.986 198.376C161.153 199.537 152.174 198.056 144.182 194.118C136.19 190.18 129.544 183.962 125.083 176.25L100.284 133.359C99.8219 132.559 99.5225 131.675 99.4023 130.759C99.2821 129.843 99.3436 128.912 99.5832 128.019C99.8228 127.127 100.236 126.29 100.799 125.557C101.362 124.824 102.064 124.209 102.864 123.748C104.481 122.815 106.402 122.563 108.204 123.047C109.097 123.287 109.934 123.7 110.666 124.263C111.399 124.826 112.014 125.528 112.476 126.328L126.735 150.938C127.481 152.231 128.71 153.175 130.152 153.562C131.594 153.949 133.131 153.747 134.424 153.001C135.717 152.255 136.661 151.026 137.048 149.584C137.435 148.142 137.233 146.606 136.488 145.312L111.702 102.422C110.77 100.801 110.52 98.8768 111.006 97.0716C111.493 95.2665 112.676 93.7285 114.297 92.7961C115.917 91.8637 117.842 91.6132 119.647 92.0998C121.452 92.5864 122.99 93.7701 123.923 95.3906L146.289 134.062C147.035 135.356 148.264 136.3 149.706 136.687C151.148 137.074 152.685 136.872 153.978 136.126C155.271 135.38 156.215 134.151 156.602 132.709C156.989 131.267 156.787 129.731 156.041 128.438L137.76 96.7969C136.828 95.1792 136.576 93.2573 137.061 91.4541C137.545 89.6509 138.726 88.114 140.344 87.1816C141.962 86.2492 143.884 85.9977 145.687 86.4823C147.49 86.9668 149.027 88.1479 149.959 89.7656L175.623 134.062C176.369 135.356 177.599 136.3 179.04 136.687C180.482 137.074 182.019 136.872 183.312 136.126C184.605 135.38 185.549 134.151 185.936 132.709C186.323 131.267 186.122 129.731 185.376 128.438L176.516 113.145C175.845 111.523 175.805 109.709 176.403 108.06C177.001 106.41 178.194 105.043 179.748 104.228C181.302 103.413 183.105 103.209 184.802 103.655C186.499 104.102 187.968 105.167 188.92 106.641L203.137 131.25C206.111 136.361 208.041 142.011 208.815 147.873C209.589 153.736 209.191 159.693 207.644 165.401V165.394ZM186.655 46.875V35.625C186.655 34.1332 187.248 32.7024 188.303 31.6475C189.358 30.5926 190.789 30 192.28 30C193.772 30 195.203 30.5926 196.258 31.6475C197.313 32.7024 197.905 34.1332 197.905 35.625V46.875C197.905 48.3668 197.313 49.7976 196.258 50.8525C195.203 51.9074 193.772 52.5 192.28 52.5C190.789 52.5 189.358 51.9074 188.303 50.8525C187.248 49.7976 186.655 48.3668 186.655 46.875ZM210.013 51.0938L215.638 41.8828C216.023 41.2512 216.528 40.7016 217.125 40.2653C217.722 39.8289 218.399 39.5145 219.118 39.3398C219.836 39.1652 220.582 39.1337 221.313 39.2474C222.043 39.361 222.745 39.6174 223.376 40.002C224.008 40.3865 224.557 40.8917 224.994 41.4887C225.43 42.0857 225.745 42.7628 225.919 43.4814C226.094 44.1999 226.125 44.9458 226.012 45.6765C225.898 46.4071 225.642 47.1083 225.257 47.7398L219.632 56.9578C219.129 57.7816 218.422 58.4621 217.58 58.9338C216.738 59.4054 215.788 59.6523 214.823 59.6508C213.823 59.6524 212.84 59.3874 211.977 58.8831C211.113 58.3788 210.4 57.6535 209.91 56.7818C209.42 55.9101 209.171 54.9235 209.19 53.9238C209.208 52.924 209.492 51.9471 210.013 51.0938ZM241.654 74.7609L231.072 78.1711C230.513 78.3506 229.929 78.4431 229.342 78.4453C227.999 78.4493 226.699 77.9726 225.677 77.1015C224.655 76.2303 223.978 75.0221 223.769 73.6954C223.56 72.3687 223.833 71.0111 224.538 69.8679C225.243 68.7247 226.333 67.8715 227.613 67.4625L238.202 64.0523C239.622 63.5945 241.165 63.7196 242.493 64.4C243.821 65.0804 244.824 66.2604 245.282 67.6805C245.74 69.1005 245.615 70.6443 244.934 71.9721C244.254 73.3 243.074 74.3031 241.654 74.7609Z" fill="white"/>
</g>
<path d="M201 183.77C201 160.701 219.701 142 242.77 142C265.839 142 284.541 160.701 284.541 183.77C284.541 206.839 265.839 225.541 242.77 225.541C219.701 225.541 201 206.839 201 183.77Z" fill="#FFD000" fill-opacity="0.6"/>
<path d="M242.769 166.365C242.284 166.365 241.815 166.538 241.446 166.853C238.418 169.499 234.067 171.587 230.586 171.587C230.125 171.587 229.682 171.771 229.355 172.097C229.029 172.423 228.846 172.866 228.846 173.328V185.511C228.846 194.213 234.937 198.564 242.195 201.07C242.57 201.21 242.982 201.216 243.361 201.088C250.601 198.564 256.693 194.213 256.693 185.511V173.328C256.693 172.866 256.509 172.423 256.183 172.097C255.856 171.771 255.414 171.587 254.952 171.587C251.471 171.587 247.138 169.516 244.092 166.853C243.723 166.538 243.254 166.365 242.769 166.365ZM242.769 166.365V201.175" stroke="white" stroke-width="2.98359" stroke-linecap="round" stroke-linejoin="round"/>
<defs>
<filter id="filter0_d_7067_62300" x="84.0723" y="30" width="165.48" height="188.023" filterUnits="userSpaceOnUse" color-interpolation-filters="sRGB">
<feFlood flood-opacity="0" result="BackgroundImageFix"/>
<feColorMatrix in="SourceAlpha" type="matrix" values="0 0 0 0 0 0 0 0 0 0 0 0 0 0 0 0 0 0 127 0" result="hardAlpha"/>
<feOffset dy="4"/>
<feGaussianBlur stdDeviation="2"/>
<feComposite in2="hardAlpha" operator="out"/>
<feColorMatrix type="matrix" values="0 0 0 0 0.996078 0 0 0 0 0.647059 0 0 0 0 0 0 0 0 0.2 0"/>
<feBlend mode="normal" in2="BackgroundImageFix" result="effect1_dropShadow_7067_62300"/>
<feBlend mode="normal" in="SourceGraphic" in2="effect1_dropShadow_7067_62300" result="shape"/>
</filter>
</defs>
</svg>
